{"glyphs":{"0":{"ha":704,"x_min":58,"x_max":647,"o":"m 569 104 q 530 44 569 104 q 353 -17 490 -17 q 137 103 215 -17 q 58 446 58 224 q 136 784 58 667 q 353 901 214 901 q 569 783 490 901 q 647 446 647 665 q 569 104 647 225 m 353 97 q 508 446 508 97 q 353 788 508 788 q 196 446 196 788 q 353 97 196 97 z "},"1":{"ha":704,"x_min":106,"x_max":626,"o":"m 106 0 l 106 118 l 304 118 l 304 724 l 142 724 l 142 814 q 340 885 261 838 l 449 885 l 449 118 l 626 118 l 626 0 l 106 0 z "},"2":{"ha":704,"x_min":47,"x_max":642,"o":"m 54 0 l 54 85 q 227 258 167 194 q 349 394 288 321 q 435 522 410 467 q 460 626 460 576 q 420 743 460 700 q 306 786 381 786 q 128 685 217 786 l 47 765 q 175 867 110 833 q 325 901 240 901 q 524 828 450 901 q 599 633 599 756 q 517 410 599 525 q 264 114 436 294 q 413 122 358 122 l 642 122 l 642 0 l 54 0 z "},"3":{"ha":704,"x_min":35,"x_max":635,"o":"m 331 -17 q 35 108 147 -17 l 104 201 q 319 101 201 101 q 443 140 396 101 q 490 244 490 179 q 429 363 490 322 q 222 404 368 404 l 222 511 q 460 660 460 511 q 422 752 460 718 q 321 786 385 786 q 140 700 229 786 l 65 790 q 326 901 189 901 q 528 840 451 901 q 606 671 606 779 q 449 465 606 525 l 449 460 q 583 381 532 439 q 635 238 635 324 q 548 52 635 121 q 331 -17 461 -17 z "},"4":{"ha":704,"x_min":25,"x_max":668,"o":"m 418 0 l 418 565 q 425 744 418 619 l 419 744 q 382 674 407 719 q 347 611 357 629 l 169 346 l 668 346 l 668 233 l 25 233 l 25 331 l 385 885 l 553 885 l 553 0 l 418 0 z "},"5":{"ha":704,"x_min":33,"x_max":638,"o":"m 332 -17 q 33 106 156 -17 l 101 199 q 314 101 201 101 q 442 151 392 101 q 493 282 493 200 q 446 410 493 364 q 321 457 399 457 q 176 407 253 457 l 106 451 l 133 885 l 594 885 l 594 763 l 258 763 l 238 532 q 361 563 299 563 q 560 492 482 563 q 638 286 638 422 q 548 65 638 147 q 332 -17 458 -17 z "},"6":{"ha":704,"x_min":64,"x_max":651,"o":"m 379 -17 q 153 93 242 -17 q 64 413 64 203 q 162 780 64 658 q 407 901 260 901 q 636 803 543 901 l 557 715 q 415 783 500 783 q 257 695 317 783 q 197 413 197 607 q 245 174 197 254 q 376 94 293 94 q 477 142 438 94 q 517 271 517 189 q 478 395 517 351 q 369 439 440 439 q 196 324 269 439 l 190 429 q 285 513 229 482 q 394 544 342 544 q 582 475 513 544 q 651 271 651 406 q 572 63 651 143 q 379 -17 493 -17 z "},"7":{"ha":704,"x_min":61,"x_max":646,"o":"m 238 0 q 304 414 249 243 q 488 763 360 585 l 61 763 l 61 885 l 646 885 l 646 796 q 448 443 499 610 q 385 0 397 276 l 238 0 z "},"8":{"ha":704,"x_min":57,"x_max":647,"o":"m 354 -17 q 141 52 225 -17 q 57 226 57 121 q 219 457 57 371 l 219 463 q 97 668 97 547 q 171 838 97 774 q 358 901 244 901 q 544 835 475 901 q 614 664 614 769 q 578 547 614 601 q 494 457 543 492 l 494 451 q 647 222 647 363 q 566 51 647 119 q 354 -17 485 -17 m 413 493 q 493 654 493 569 q 456 757 493 717 q 356 797 419 797 q 263 763 299 797 q 226 668 226 728 q 273 567 226 604 q 413 493 319 531 m 357 88 q 468 126 425 88 q 511 226 511 164 q 497 291 511 264 q 444 342 482 318 q 379 378 406 367 q 290 417 353 390 q 185 240 185 342 q 234 131 185 174 q 357 88 283 88 z "},"9":{"ha":704,"x_min":53,"x_max":640,"o":"m 296 -17 q 68 81 158 -17 l 146 169 q 289 101 203 101 q 447 189 388 101 q 506 472 506 276 q 458 711 506 632 q 326 790 411 790 q 226 742 267 790 q 186 614 186 694 q 224 488 186 532 q 335 444 263 444 q 507 560 432 444 l 513 456 q 418 372 475 403 q 308 340 361 340 q 122 410 190 340 q 53 614 53 479 q 132 822 53 742 q 325 901 211 901 q 551 792 463 901 q 640 472 640 682 q 542 105 640 226 q 296 -17 443 -17 z "}," ":{"ha":278,"x_min":0,"x_max":0,"o":""},"!":{"ha":425,"x_min":117,"x_max":308,"o":"m 164 290 l 144 782 l 140 931 l 286 931 l 281 782 l 261 290 l 164 290 m 281 12 q 267 -2 281 12 q 213 -17 253 -17 q 144 12 172 -17 q 117 83 117 40 q 144 157 117 128 q 213 186 172 186 q 281 157 253 186 q 308 83 308 128 q 281 12 308 40 z "},"\"":{"ha":643,"x_min":110,"x_max":532,"o":"m 142 564 l 114 810 l 110 957 l 258 957 l 254 810 l 226 564 l 142 564 m 415 564 l 388 810 l 383 957 l 532 957 l 528 810 l 500 564 l 415 564 z "},"#":{"ha":704,"x_min":49,"x_max":663,"o":"m 124 0 l 157 275 l 49 275 l 49 372 l 168 372 l 192 560 l 76 560 l 76 657 l 203 657 l 235 903 l 322 903 l 292 657 l 463 657 l 494 903 l 582 903 l 551 657 l 663 657 l 663 560 l 540 560 l 517 372 l 635 372 l 635 275 l 506 275 l 472 0 l 383 0 l 417 275 l 246 275 l 213 0 l 124 0 m 257 372 l 428 372 l 451 560 l 281 560 l 257 372 z "},"$":{"ha":704,"x_min":65,"x_max":621,"o":"m 340 -17 q 194 13 269 -17 q 65 92 119 43 l 132 190 q 340 101 240 101 q 446 135 410 101 q 482 229 482 168 q 442 323 482 283 q 347 390 403 363 q 235 448 292 418 q 140 531 179 478 q 100 657 100 585 q 172 834 100 767 q 363 901 244 901 q 606 792 501 901 l 531 707 q 453 765 489 747 q 368 783 417 783 q 274 751 308 783 q 240 664 240 719 q 269 590 240 622 q 339 538 297 558 q 431 492 381 518 q 522 437 481 465 q 592 358 564 408 q 621 239 621 307 q 545 53 621 124 q 340 -17 469 -17 m 306 -153 l 306 38 l 406 38 l 406 -153 l 306 -153 m 306 851 l 306 1038 l 406 1038 l 406 851 l 306 851 z "},"%":{"ha":1160,"x_min":44,"x_max":1117,"o":"m 412 428 q 382 390 412 428 q 257 351 353 351 q 103 428 161 351 q 44 640 44 504 q 103 851 44 775 q 257 926 161 926 q 413 851 354 926 q 471 640 471 775 q 412 428 471 506 m 178 488 q 193 462 178 488 q 257 436 208 436 q 335 488 306 436 q 365 640 365 540 q 335 791 365 740 q 257 842 306 842 q 178 791 208 842 q 149 640 149 740 q 178 488 149 540 m 286 -17 l 783 926 l 875 926 l 376 -17 l 286 -17 m 1058 60 q 1028 22 1058 60 q 903 -17 999 -17 q 749 60 807 -17 q 690 272 690 136 q 749 483 690 407 q 903 558 807 558 q 1058 483 1000 558 q 1117 272 1117 407 q 1058 60 1117 138 m 824 120 q 839 94 824 120 q 903 68 854 68 q 981 120 951 68 q 1011 272 1011 172 q 981 423 1011 372 q 903 474 951 474 q 824 423 854 474 q 794 272 794 372 q 824 120 794 172 z "},"&":{"ha":874,"x_min":42,"x_max":850,"o":"m 326 -17 q 119 55 197 -17 q 42 238 42 126 q 73 358 42 303 q 150 449 104 414 q 251 521 196 485 q 351 585 306 557 q 428 653 397 614 q 460 736 460 692 q 382 826 460 826 q 308 792 336 826 q 279 704 279 758 q 390 447 279 590 q 647 203 501 304 q 850 101 763 122 l 814 -17 q 561 108 688 14 q 276 399 396 231 q 157 703 157 567 q 219 862 157 797 q 381 926 282 926 q 522 874 469 926 q 574 738 574 822 q 533 615 574 672 q 434 516 492 558 q 319 434 376 474 q 220 346 261 394 q 179 246 179 297 q 226 138 179 179 q 344 96 272 96 q 546 199 446 96 q 708 499 658 315 l 842 499 q 646 131 779 286 q 326 -17 513 -17 z "},"'":{"ha":369,"x_min":110,"x_max":258,"o":"m 142 564 l 114 810 l 110 957 l 258 957 l 254 810 l 226 564 l 142 564 z "},"(":{"ha":440,"x_min":110,"x_max":382,"o":"m 293 -246 q 110 386 110 53 q 293 1018 110 719 l 382 978 q 228 386 228 715 q 382 -206 228 57 l 293 -246 z "},")":{"ha":440,"x_min":57,"x_max":331,"o":"m 147 -246 l 57 -206 q 213 386 213 57 q 57 978 213 715 l 147 1018 q 331 386 331 719 q 147 -246 331 53 z "},"*":{"ha":599,"x_min":71,"x_max":528,"o":"m 196 550 l 131 599 l 211 732 l 71 793 l 96 869 l 244 835 l 258 989 l 339 989 l 354 835 l 503 869 l 528 793 l 388 732 l 467 599 l 401 550 l 300 671 l 196 550 z "},"+":{"ha":704,"x_min":47,"x_max":657,"o":"m 297 140 l 297 406 l 47 406 l 47 511 l 297 511 l 297 776 l 408 776 l 408 511 l 657 511 l 657 406 l 408 406 l 408 140 l 297 140 z "},",":{"ha":369,"x_min":65,"x_max":303,"o":"m 97 -247 l 65 -167 q 166 -95 131 -140 q 200 6 201 -50 l 192 119 l 251 26 q 188 1 226 1 q 119 26 147 1 q 92 93 92 51 q 120 160 92 135 q 190 186 149 186 q 273 145 243 186 q 303 32 303 104 q 249 -138 303 -65 q 97 -247 194 -211 z "},"-":{"ha":442,"x_min":58,"x_max":385,"o":"m 58 296 l 58 403 l 385 403 l 385 296 l 58 296 z "},".":{"ha":369,"x_min":89,"x_max":281,"o":"m 253 12 q 239 -2 253 12 q 185 -17 225 -17 q 117 12 144 -17 q 89 83 89 40 q 117 157 89 128 q 185 186 144 186 q 253 157 225 186 q 281 83 281 128 q 253 12 281 40 z "},"/":{"ha":481,"x_min":15,"x_max":456,"o":"m 15 -222 l 356 986 l 456 986 l 115 -222 l 15 -222 z "},":":{"ha":369,"x_min":89,"x_max":281,"o":"m 253 495 q 239 481 253 495 q 185 467 225 467 q 117 495 144 467 q 89 567 89 524 q 117 640 89 611 q 185 669 144 669 q 253 640 225 669 q 281 567 281 611 q 253 495 281 524 m 253 12 q 239 -2 253 12 q 185 -17 225 -17 q 117 12 144 -17 q 89 83 89 40 q 117 157 89 128 q 185 186 144 186 q 253 157 225 186 q 281 83 281 128 q 253 12 281 40 z "},";":{"ha":369,"x_min":65,"x_max":303,"o":"m 253 495 q 239 481 253 495 q 185 467 225 467 q 117 495 144 467 q 89 567 89 524 q 117 640 89 611 q 185 669 144 669 q 253 640 225 669 q 281 567 281 611 q 253 495 281 524 m 97 -247 l 65 -167 q 166 -95 131 -140 q 200 6 201 -50 l 192 119 l 251 26 q 188 1 226 1 q 119 26 147 1 q 92 93 92 51 q 120 160 92 135 q 190 186 149 186 q 273 145 243 186 q 303 32 303 104 q 249 -138 303 -65 q 97 -247 194 -211 z "},"<":{"ha":704,"x_min":47,"x_max":657,"o":"m 657 169 l 47 407 l 47 515 l 657 753 l 657 631 l 381 532 l 194 464 l 194 458 l 381 390 l 657 292 l 657 169 z "},"=":{"ha":704,"x_min":47,"x_max":657,"o":"m 47 558 l 47 664 l 657 664 l 657 558 l 47 558 m 47 253 l 47 358 l 657 358 l 657 253 l 47 253 z "},">":{"ha":704,"x_min":47,"x_max":657,"o":"m 47 169 l 47 292 l 324 390 l 511 458 l 511 464 l 324 532 l 47 631 l 47 753 l 657 515 l 657 407 l 47 169 z "},"?":{"ha":608,"x_min":54,"x_max":544,"o":"m 219 290 q 227 401 211 349 q 272 491 243 453 q 331 564 301 529 q 383 636 361 599 q 404 710 404 674 q 372 796 404 763 q 285 829 340 829 q 136 754 201 829 l 54 829 q 301 947 160 947 q 478 887 411 947 q 544 719 544 826 q 522 625 544 671 q 469 544 500 579 q 407 472 438 508 q 358 388 376 435 q 346 290 340 342 l 219 290 m 353 12 q 339 -2 353 12 q 285 -17 325 -17 q 217 12 244 -17 q 189 83 189 40 q 217 157 189 128 q 285 186 244 186 q 353 157 325 186 q 381 83 381 128 q 353 12 381 40 z "},"@":{"ha":1201,"x_min":69,"x_max":1133,"o":"m 571 -224 q 213 -91 356 -224 q 69 283 69 42 q 243 734 69 560 q 664 908 417 908 q 1006 778 878 908 q 1133 436 1133 647 q 1043 164 1133 264 q 842 64 953 64 q 742 92 782 64 q 693 169 701 119 l 690 169 q 612 101 657 126 q 522 75 567 75 q 397 128 446 75 q 349 275 349 182 q 427 501 349 399 q 621 604 506 604 q 731 536 694 604 l 733 536 l 750 593 l 842 593 l 785 306 q 857 157 747 157 q 981 233 926 157 q 1036 432 1036 310 q 938 709 1036 601 q 653 817 840 817 q 317 668 461 817 q 172 288 172 519 q 288 -20 172 90 q 582 -131 403 -131 q 803 -72 696 -131 l 838 -154 q 571 -224 717 -224 m 551 169 q 667 246 606 169 l 704 456 q 624 507 672 507 q 507 435 553 507 q 461 283 461 364 q 485 198 461 226 q 551 169 510 169 z "},"A":{"ha":768,"x_min":0,"x_max":769,"o":"m 0 0 l 300 910 l 468 910 l 769 0 l 615 0 l 469 492 q 385 794 432 611 l 379 794 q 294 492 335 624 l 147 0 l 0 0 m 169 257 l 169 372 l 594 372 l 594 257 l 169 257 z "},"B":{"ha":825,"x_min":118,"x_max":772,"o":"m 118 0 l 118 910 l 403 910 q 722 686 722 910 q 688 565 722 619 q 594 489 654 510 l 594 483 q 724 410 675 465 q 772 267 772 356 q 677 68 772 136 q 425 0 582 0 l 118 0 m 264 531 l 386 531 q 581 665 581 531 q 533 765 581 735 q 390 796 486 796 l 264 796 l 264 531 m 264 114 l 408 114 q 629 274 629 114 q 408 421 629 421 l 264 421 l 264 114 z "},"C":{"ha":797,"x_min":69,"x_max":758,"o":"m 475 -17 q 183 108 297 -17 q 69 453 69 233 q 187 798 69 669 q 481 926 304 926 q 739 813 633 926 l 661 718 q 485 799 583 799 q 292 706 365 799 q 219 457 219 614 q 290 203 219 296 q 481 110 360 110 q 681 207 593 110 l 758 115 q 475 -17 643 -17 z "},"D":{"ha":864,"x_min":118,"x_max":794,"o":"m 118 0 l 118 910 l 356 910 q 681 794 567 910 q 794 458 794 679 q 681 119 794 238 q 364 0 568 0 l 118 0 m 264 118 l 346 118 q 568 204 492 118 q 644 458 644 290 q 346 792 644 792 l 264 792 l 264 118 z "},"E":{"ha":742,"x_min":118,"x_max":672,"o":"m 118 0 l 118 910 l 658 910 l 658 786 l 264 786 l 264 536 l 597 536 l 597 413 l 264 413 l 264 122 l 672 122 l 672 0 l 118 0 z "},"F":{"ha":700,"x_min":118,"x_max":660,"o":"m 118 0 l 118 910 l 660 910 l 660 786 l 264 786 l 264 513 l 600 513 l 600 389 l 264 389 l 264 0 l 118 0 z "},"G":{"ha":867,"x_min":69,"x_max":778,"o":"m 492 -17 q 187 108 304 -17 q 69 453 69 233 q 189 798 69 669 q 494 926 308 926 q 765 813 654 926 l 688 718 q 500 799 607 799 q 296 706 372 799 q 219 457 219 614 q 294 201 219 293 q 506 110 368 110 q 647 156 597 110 l 647 365 l 468 365 l 468 485 l 778 485 l 778 90 q 656 13 731 42 q 492 -17 581 -17 z "},"H":{"ha":915,"x_min":118,"x_max":797,"o":"m 118 0 l 118 910 l 264 910 l 264 539 l 651 539 l 651 910 l 797 910 l 797 0 l 651 0 l 651 411 l 264 411 l 264 0 l 118 0 z "},"I":{"ha":383,"x_min":118,"x_max":264,"o":"m 118 0 l 118 910 l 264 910 l 264 0 l 118 0 z "},"J":{"ha":679,"x_min":36,"x_max":565,"o":"m 301 -17 q 36 135 122 -17 l 138 208 q 285 110 193 110 q 386 152 353 110 q 419 292 419 194 l 419 910 l 565 910 l 565 279 q 499 66 565 149 q 301 -17 433 -17 z "},"K":{"ha":821,"x_min":118,"x_max":819,"o":"m 118 0 l 118 910 l 264 910 l 264 482 l 268 482 l 611 910 l 774 910 l 492 557 l 819 0 l 658 0 l 404 443 l 264 274 l 264 0 l 118 0 z "},"L":{"ha":689,"x_min":118,"x_max":649,"o":"m 118 0 l 118 910 l 264 910 l 264 122 l 649 122 l 649 0 l 118 0 z "},"M":{"ha":1026,"x_min":118,"x_max":907,"o":"m 118 0 l 118 910 l 286 910 l 451 450 q 485 353 464 417 q 513 268 506 289 l 518 268 q 549 363 529 301 q 576 450 568 424 l 739 910 l 907 910 l 907 0 l 774 0 l 774 446 q 792 728 774 511 l 786 728 l 713 518 l 556 88 l 467 88 l 310 518 l 238 728 l 232 728 q 250 446 250 511 l 250 0 l 118 0 z "},"N":{"ha":907,"x_min":118,"x_max":788,"o":"m 118 0 l 118 910 l 268 910 l 567 378 l 663 185 l 668 185 q 650 489 650 426 l 650 910 l 788 910 l 788 0 l 639 0 l 339 533 l 244 724 l 239 724 q 257 425 257 478 l 257 0 l 118 0 z "},"O":{"ha":932,"x_min":69,"x_max":863,"o":"m 465 -17 q 179 112 289 -17 q 69 458 69 240 q 178 801 69 675 q 465 926 288 926 q 753 801 644 926 q 863 458 863 675 q 753 112 863 240 q 465 -17 643 -17 m 465 110 q 645 204 578 110 q 713 458 713 299 q 645 707 713 615 q 465 799 578 799 q 286 707 353 799 q 219 458 219 615 q 287 204 219 299 q 465 110 354 110 z "},"P":{"ha":800,"x_min":118,"x_max":744,"o":"m 118 0 l 118 910 l 396 910 q 744 633 744 910 q 651 417 744 490 q 401 343 557 343 l 264 343 l 264 0 l 118 0 m 264 460 l 388 460 q 600 633 600 460 q 547 757 600 721 q 382 793 494 793 l 264 793 l 264 460 z "},"Q":{"ha":932,"x_min":69,"x_max":892,"o":"m 465 -17 q 179 112 289 -17 q 69 458 69 240 q 178 801 69 675 q 465 926 288 926 q 753 801 644 926 q 863 458 863 675 q 753 112 863 240 q 465 -17 643 -17 m 286 199 q 319 151 286 199 q 465 103 353 103 q 645 199 578 103 q 713 458 713 294 q 645 707 713 615 q 465 799 578 799 q 286 707 353 799 q 219 458 219 615 q 286 199 219 294 m 751 -237 q 526 -171 619 -237 q 390 4 433 -104 l 540 17 q 628 -84 567 -50 q 767 -118 689 -118 q 865 -104 813 -118 l 892 -212 q 751 -237 839 -237 z "},"R":{"ha":811,"x_min":118,"x_max":779,"o":"m 118 0 l 118 910 l 418 910 q 747 644 747 910 q 656 436 747 507 q 418 365 565 365 l 264 365 l 264 0 l 118 0 m 264 482 l 401 482 q 603 644 603 482 q 553 758 603 724 q 401 793 503 793 l 264 793 l 264 482 m 615 0 l 390 404 l 497 489 l 779 0 l 615 0 z "},"S":{"ha":751,"x_min":56,"x_max":700,"o":"m 379 -17 q 56 117 189 -17 l 140 217 q 382 110 250 110 q 507 144 463 110 q 551 238 551 179 q 542 288 551 267 q 509 327 533 310 q 467 353 485 344 q 407 381 449 363 l 281 436 q 96 675 96 515 q 181 855 96 783 q 396 926 267 926 q 547 895 474 926 q 671 811 619 864 l 596 718 q 396 799 507 799 q 285 768 326 799 q 243 683 243 738 q 254 635 243 656 q 291 597 265 614 q 334 572 317 581 q 390 547 351 563 l 515 494 q 652 400 604 457 q 700 250 700 343 q 613 60 700 136 q 379 -17 525 -17 z "},"T":{"ha":754,"x_min":38,"x_max":717,"o":"m 304 0 l 304 786 l 38 786 l 38 910 l 717 910 l 717 786 l 450 786 l 450 0 l 304 0 z "},"U":{"ha":906,"x_min":114,"x_max":790,"o":"m 453 -17 q 114 390 114 -17 l 114 910 l 260 910 l 260 382 q 453 110 260 110 q 651 382 651 110 l 651 910 l 790 910 l 790 390 q 453 -17 790 -17 z "},"V":{"ha":735,"x_min":-3,"x_max":738,"o":"m 282 0 l -3 910 l 151 910 l 285 440 q 324 298 297 396 q 368 143 350 200 l 374 143 q 420 309 392 204 q 456 440 449 414 l 589 910 l 738 910 l 454 0 l 282 0 z "},"W":{"ha":1104,"x_min":28,"x_max":1076,"o":"m 213 0 l 28 910 l 176 910 l 261 438 q 310 146 294 243 l 315 146 q 376 438 342 278 l 493 910 l 621 910 l 738 438 q 800 146 758 343 l 806 146 q 851 438 828 294 l 936 910 l 1076 910 l 897 0 l 718 0 l 596 503 q 556 711 569 628 l 550 711 q 507 503 526 592 l 388 0 l 213 0 z "},"X":{"ha":738,"x_min":19,"x_max":719,"o":"m 19 0 l 279 469 l 36 910 l 197 910 l 306 697 q 341 628 318 674 q 375 560 364 582 l 381 560 q 443 697 424 657 l 549 910 l 703 910 l 458 463 l 719 0 l 557 0 l 439 225 q 364 372 392 317 l 358 372 q 289 225 333 317 l 174 0 l 19 0 z "},"Y":{"ha":683,"x_min":-4,"x_max":688,"o":"m 269 0 l 269 343 l -4 910 l 151 910 l 257 668 q 340 469 300 558 l 346 469 q 387 563 357 494 q 432 668 417 631 l 536 910 l 688 910 l 414 343 l 414 0 l 269 0 z "},"Z":{"ha":750,"x_min":58,"x_max":694,"o":"m 58 0 l 58 88 l 511 786 l 99 786 l 99 910 l 692 910 l 692 822 l 238 122 l 694 122 l 694 0 l 58 0 z "},"[":{"ha":440,"x_min":128,"x_max":390,"o":"m 128 -211 l 128 983 l 390 983 l 390 904 l 236 904 l 236 -132 l 390 -132 l 390 -211 l 128 -211 z "},"\\":{"ha":481,"x_min":26,"x_max":465,"o":"m 367 -222 l 26 986 l 125 986 l 465 -222 l 367 -222 z "},"]":{"ha":440,"x_min":50,"x_max":313,"o":"m 50 -211 l 50 -132 l 204 -132 l 204 904 l 50 904 l 50 983 l 313 983 l 313 -211 l 50 -211 z "},"^":{"ha":704,"x_min":79,"x_max":626,"o":"m 79 390 l 292 931 l 414 931 l 626 390 l 504 390 l 422 611 l 356 799 l 350 799 l 283 611 l 201 390 l 79 390 z "},"_":{"ha":694,"x_min":17,"x_max":678,"o":"m 17 -182 l 17 -92 l 678 -92 l 678 -182 l 17 -182 z "},"`":{"ha":760,"x_min":158,"x_max":460,"o":"m 388 796 l 158 1010 l 258 1106 l 460 867 l 388 796 z "},"a":{"ha":711,"x_min":68,"x_max":618,"o":"m 268 -17 q 124 38 179 -17 q 68 181 68 92 q 165 351 68 290 q 474 433 261 411 q 344 579 471 579 q 149 511 258 579 l 94 607 q 369 696 232 696 q 618 407 618 696 l 618 0 l 499 0 l 488 78 l 483 78 q 268 -17 371 -17 m 313 97 q 474 176 386 97 l 474 342 q 268 287 329 324 q 207 192 207 250 q 236 121 207 144 q 313 97 265 97 z "},"b":{"ha":778,"x_min":106,"x_max":717,"o":"m 425 -17 q 238 71 328 -17 l 233 71 l 219 0 l 106 0 l 106 983 l 250 983 l 250 725 l 246 608 q 449 696 346 696 q 646 603 575 696 q 717 351 717 510 q 631 83 717 183 q 425 -17 546 -17 m 396 103 q 520 168 472 103 q 568 349 568 233 q 410 576 568 576 q 250 494 332 576 l 250 164 q 396 103 321 103 z "},"c":{"ha":639,"x_min":60,"x_max":606,"o":"m 383 -17 q 151 78 242 -17 q 60 339 60 174 q 158 599 60 503 q 396 696 256 696 q 594 619 508 696 l 524 525 q 403 578 464 578 q 262 512 317 578 q 207 339 207 446 q 260 167 207 232 q 399 101 314 101 q 546 164 474 101 l 606 68 q 383 -17 508 -17 z "},"d":{"ha":779,"x_min":63,"x_max":674,"o":"m 342 -17 q 138 78 214 -17 q 63 339 63 172 q 148 597 63 499 q 351 696 233 696 q 535 621 444 696 l 529 732 l 529 983 l 674 983 l 674 0 l 554 0 l 543 76 l 539 76 q 342 -17 446 -17 m 254 165 q 276 134 254 165 q 376 103 297 103 q 529 185 456 103 l 529 515 q 381 576 458 576 q 260 512 308 576 q 211 340 211 447 q 254 165 211 226 z "},"e":{"ha":699,"x_min":60,"x_max":647,"o":"m 390 -17 q 153 79 247 -17 q 60 339 60 175 q 152 597 60 499 q 369 696 244 696 q 575 609 503 696 q 647 375 647 522 q 640 301 647 329 l 200 301 q 266 151 210 206 q 410 96 322 96 q 571 147 490 96 l 621 56 q 390 -17 513 -17 m 199 401 l 522 401 q 484 536 522 489 q 372 583 446 583 q 258 535 307 583 q 199 401 208 486 z "},"f":{"ha":428,"x_min":39,"x_max":467,"o":"m 131 0 l 131 763 q 184 937 131 874 q 347 1000 238 1000 q 467 976 408 1000 l 439 868 q 364 885 401 885 q 275 764 275 885 l 275 0 l 131 0 m 39 564 l 39 672 l 138 679 l 411 679 l 411 564 l 39 564 z "},"g":{"ha":714,"x_min":58,"x_max":696,"o":"m 340 -304 q 135 -258 213 -304 q 58 -126 58 -212 q 156 22 58 -39 l 156 28 q 94 140 94 67 q 169 267 94 214 l 169 272 q 106 349 132 301 q 81 453 81 396 q 158 630 81 564 q 344 696 235 696 q 444 679 397 696 l 685 679 l 685 572 l 556 572 q 600 449 600 522 q 528 278 600 340 q 344 215 456 215 q 250 235 297 215 q 213 165 213 204 q 326 99 213 99 l 451 99 q 696 -67 696 99 q 598 -236 696 -168 q 340 -304 500 -304 m 254 348 q 272 328 254 348 q 344 308 290 308 q 435 348 399 308 q 472 453 472 388 q 436 558 472 519 q 344 596 400 596 q 254 557 290 596 q 218 453 218 518 q 254 348 218 388 m 228 -181 q 252 -195 228 -181 q 361 -210 276 -210 q 501 -174 446 -210 q 557 -90 557 -139 q 526 -33 557 -49 q 431 -17 496 -17 l 329 -17 q 239 -7 276 -17 q 181 -104 181 -47 q 228 -181 181 -153 z "},"h":{"ha":768,"x_min":106,"x_max":674,"o":"m 106 0 l 106 983 l 250 983 l 250 725 l 244 590 q 465 696 356 696 q 674 428 674 696 l 674 0 l 529 0 l 529 410 q 502 534 529 496 q 415 572 475 572 q 335 551 371 572 q 250 481 299 529 l 250 0 l 106 0 z "},"i":{"ha":356,"x_min":86,"x_max":271,"o":"m 106 0 l 106 679 l 250 679 l 250 0 l 106 0 m 179 806 q 113 830 139 806 q 86 890 86 854 q 113 951 86 928 q 179 975 139 975 q 244 951 218 975 q 271 890 271 928 q 244 830 271 854 q 179 806 218 806 z "},"j":{"ha":357,"x_min":-61,"x_max":272,"o":"m 46 -292 q -61 -274 -12 -292 l -33 -165 q 28 -176 3 -176 q 90 -146 72 -176 q 107 -51 107 -115 l 107 679 l 251 679 l 251 -49 q 46 -292 251 -292 m 181 806 q 114 830 140 806 q 88 890 88 854 q 114 951 88 928 q 181 975 140 975 q 246 951 219 975 q 272 890 272 928 q 246 830 272 854 q 181 806 219 806 z "},"k":{"ha":711,"x_min":106,"x_max":700,"o":"m 106 0 l 106 983 l 247 983 l 247 351 l 251 351 l 517 679 l 675 679 l 443 404 l 700 0 l 543 0 l 361 306 l 247 175 l 247 0 l 106 0 z "},"l":{"ha":368,"x_min":106,"x_max":328,"o":"m 249 -17 q 106 161 106 -17 l 106 983 l 250 983 l 250 153 q 283 101 250 101 q 308 104 296 101 l 328 -4 q 249 -17 293 -17 z "},"m":{"ha":1164,"x_min":106,"x_max":1067,"o":"m 106 0 l 106 679 l 225 679 l 236 585 l 240 585 q 450 696 344 696 q 638 572 589 696 q 858 696 754 696 q 1067 428 1067 696 l 1067 0 l 922 0 l 922 410 q 895 534 922 496 q 810 572 868 572 q 658 481 742 572 l 658 0 l 514 0 l 514 410 q 487 534 514 496 q 401 572 460 572 q 250 481 333 572 l 250 0 l 106 0 z "},"n":{"ha":771,"x_min":106,"x_max":674,"o":"m 106 0 l 106 679 l 225 679 l 236 586 l 240 586 q 465 696 353 696 q 674 428 674 696 l 674 0 l 529 0 l 529 410 q 502 534 529 496 q 415 572 475 572 q 335 551 371 572 q 250 481 299 529 l 250 0 l 106 0 z "},"o":{"ha":760,"x_min":60,"x_max":700,"o":"m 379 -17 q 153 80 247 -17 q 60 339 60 176 q 153 599 60 503 q 379 696 247 696 q 606 599 513 696 q 700 339 700 503 q 606 80 700 176 q 379 -17 513 -17 m 253 166 q 277 134 253 166 q 379 101 300 101 q 505 166 458 101 q 551 339 551 231 q 505 513 551 447 q 379 578 458 578 q 253 513 300 578 q 207 339 207 447 q 253 166 207 231 z "},"p":{"ha":779,"x_min":106,"x_max":717,"o":"m 106 -275 l 106 679 l 225 679 l 236 606 l 240 606 q 449 696 346 696 q 647 603 576 696 q 717 350 717 510 q 631 83 717 183 q 425 -17 546 -17 q 246 60 338 -17 l 250 -56 l 250 -275 l 106 -275 m 396 103 q 520 168 472 103 q 568 349 568 233 q 410 576 568 576 q 250 494 333 576 l 250 164 q 396 103 322 103 z "},"q":{"ha":779,"x_min":63,"x_max":674,"o":"m 529 -275 l 529 -46 l 535 71 q 342 -17 442 -17 q 138 78 214 -17 q 63 339 63 172 q 148 597 63 499 q 351 696 233 696 q 542 614 456 696 l 546 614 l 558 679 l 674 679 l 674 -275 l 529 -275 m 254 165 q 276 134 254 165 q 376 103 297 103 q 529 185 456 103 l 529 515 q 381 576 458 576 q 260 512 308 576 q 211 340 211 447 q 254 165 211 226 z "},"r":{"ha":506,"x_min":106,"x_max":508,"o":"m 106 0 l 106 679 l 225 679 l 236 558 l 240 558 q 326 660 275 624 q 433 696 378 696 q 508 682 479 696 l 483 557 q 414 568 446 568 q 324 533 368 568 q 250 422 281 497 l 250 0 l 106 0 z "},"s":{"ha":593,"x_min":36,"x_max":550,"o":"m 292 -17 q 36 78 150 -17 l 104 171 q 296 93 203 93 q 383 118 353 93 q 414 183 414 143 q 403 222 414 206 q 364 254 392 239 q 320 276 336 269 q 264 299 304 283 q 122 376 175 332 q 69 497 69 421 q 135 640 69 585 q 313 696 201 696 q 533 617 433 696 l 467 528 q 315 586 388 586 q 233 563 261 586 q 206 504 206 540 q 227 459 206 479 q 267 430 249 439 q 333 404 286 421 q 351 397 346 400 q 424 367 399 379 q 484 330 450 354 q 534 272 518 306 q 550 192 550 238 q 482 42 550 101 q 292 -17 414 -17 z "},"t":{"ha":490,"x_min":31,"x_max":471,"o":"m 336 -17 q 128 222 128 -17 l 128 564 l 31 564 l 31 672 l 136 679 l 153 867 l 272 867 l 272 679 l 450 679 l 450 564 l 272 564 l 272 222 q 372 99 272 99 q 444 115 406 99 l 471 8 q 336 -17 396 -17 z "},"u":{"ha":767,"x_min":97,"x_max":661,"o":"m 307 -17 q 97 251 97 -17 l 97 679 l 242 679 l 242 271 q 269 145 242 183 q 356 107 296 107 q 438 131 401 107 q 517 208 474 154 l 517 679 l 661 679 l 661 0 l 543 0 l 531 103 l 526 103 q 307 -17 428 -17 z "},"v":{"ha":674,"x_min":17,"x_max":657,"o":"m 257 0 l 17 679 l 164 679 l 279 315 q 338 113 290 276 l 343 113 q 373 214 353 146 q 403 315 393 282 l 518 679 l 657 679 l 424 0 l 257 0 z "},"w":{"ha":1025,"x_min":33,"x_max":992,"o":"m 217 0 l 33 679 l 179 679 l 268 314 q 288 208 276 276 q 304 119 300 140 l 310 119 q 354 314 338 250 l 449 679 l 582 679 l 678 314 q 724 119 682 299 l 729 119 q 749 217 736 153 q 768 314 761 281 l 856 679 l 992 679 l 815 0 l 643 0 l 557 333 q 514 531 551 356 l 508 531 q 467 332 482 396 l 383 0 l 217 0 z "},"x":{"ha":651,"x_min":19,"x_max":632,"o":"m 19 0 l 238 354 l 35 679 l 190 679 l 271 544 q 335 429 301 485 l 340 429 q 368 488 349 449 q 396 544 388 526 l 467 679 l 617 679 l 414 339 l 632 0 l 476 0 l 388 143 q 317 264 346 218 l 311 264 l 249 143 l 169 0 l 19 0 z "},"y":{"ha":674,"x_min":17,"x_max":657,"o":"m 139 -283 q 54 -269 93 -283 l 81 -157 q 131 -167 113 -167 q 272 -40 229 -167 l 286 6 l 17 679 l 164 679 l 289 332 q 319 238 299 303 q 350 140 339 174 l 356 140 q 382 233 364 167 q 410 332 400 299 l 518 679 l 657 679 l 408 -39 q 302 -222 364 -160 q 139 -283 240 -283 z "},"z":{"ha":607,"x_min":46,"x_max":572,"o":"m 46 0 l 46 78 l 379 564 l 83 564 l 83 679 l 561 679 l 561 603 l 228 115 l 572 115 l 572 0 l 46 0 z "},"{":{"ha":440,"x_min":46,"x_max":390,"o":"m 319 -211 q 192 -169 231 -211 q 153 -22 153 -128 q 159 110 153 29 q 165 235 165 190 q 138 310 165 281 q 46 342 110 340 l 46 431 q 138 462 110 432 q 165 536 165 492 q 159 662 165 581 q 153 794 153 743 q 192 942 153 900 q 319 983 231 983 l 390 983 l 390 904 l 357 904 q 288 878 306 904 q 269 788 269 853 q 273 669 269 747 q 276 543 276 590 q 256 437 276 472 q 186 389 235 401 l 186 383 q 256 335 235 371 q 276 229 276 299 q 273 103 276 182 q 269 -15 269 25 q 288 -106 269 -81 q 357 -132 306 -132 l 390 -132 l 390 -211 l 319 -211 z "},"|":{"ha":347,"x_min":125,"x_max":222,"o":"m 125 -347 l 125 1042 l 222 1042 l 222 -347 l 125 -347 z "},"}":{"ha":440,"x_min":50,"x_max":394,"o":"m 50 -211 l 50 -132 l 82 -132 q 152 -106 133 -132 q 171 -15 171 -81 q 167 103 171 25 q 164 229 164 182 q 185 335 164 299 q 253 383 206 371 l 253 389 q 185 437 206 401 q 164 543 164 472 q 167 669 164 590 q 171 788 171 747 q 152 878 171 853 q 82 904 133 904 l 50 904 l 50 983 l 119 983 q 248 942 208 983 q 288 794 288 901 q 281 662 288 743 q 275 536 275 581 q 303 462 275 492 q 394 431 331 432 l 394 342 q 303 310 331 340 q 275 235 275 281 q 281 110 275 190 q 288 -22 288 29 q 248 -170 288 -129 q 119 -211 208 -211 l 50 -211 z "},"~":{"ha":704,"x_min":47,"x_max":658,"o":"m 474 349 q 381 377 426 349 q 299 434 336 406 q 229 463 261 463 q 125 379 169 463 l 47 436 q 232 568 125 568 q 324 540 279 568 q 406 483 368 511 q 476 454 444 454 q 579 538 535 454 l 658 479 q 474 349 578 349 z "}," ":{"ha":283,"x_min":0,"x_max":0,"o":""},"¡":{"ha":425,"x_min":117,"x_max":308,"o":"m 140 -251 l 144 -103 l 164 389 l 261 389 l 281 -103 l 286 -251 l 140 -251 m 281 523 q 268 509 281 523 q 213 494 254 494 q 144 523 171 494 q 117 596 117 551 q 144 667 117 639 q 213 696 172 696 q 281 667 253 696 q 308 596 308 639 q 281 523 308 551 z "},"¢":{"ha":704,"x_min":85,"x_max":646,"o":"m 424 88 q 178 178 271 88 q 85 429 85 268 q 185 679 85 588 q 435 771 285 771 q 635 690 551 771 l 565 600 q 443 651 510 651 q 285 591 343 651 q 226 429 226 531 q 283 267 226 328 q 439 206 340 206 q 585 267 513 206 l 646 175 q 424 88 547 88 m 371 -49 l 371 908 l 456 908 l 456 -49 l 371 -49 z "},"£":{"ha":704,"x_min":72,"x_max":650,"o":"m 72 0 l 72 89 q 180 187 140 124 q 219 326 219 250 q 187 483 219 379 q 154 636 154 586 q 229 830 154 758 q 425 901 304 901 q 649 794 560 901 l 568 714 q 438 783 510 783 q 332 742 369 783 q 294 631 294 701 q 321 483 294 582 q 347 325 347 385 q 269 128 347 210 l 269 122 l 650 122 l 650 0 l 72 0 m 74 389 l 74 478 l 167 483 l 538 483 l 538 389 l 74 389 z "},"¤":{"ha":704,"x_min":33,"x_max":671,"o":"m 108 133 l 33 210 l 121 299 q 72 457 72 367 q 121 617 72 549 l 33 706 l 108 782 l 203 685 q 353 731 271 731 q 501 685 433 731 l 596 782 l 671 706 l 583 617 q 633 457 633 546 q 583 299 633 369 l 671 210 l 596 133 l 501 231 q 353 185 436 185 q 203 231 269 185 l 108 133 m 353 289 q 458 335 415 289 q 501 457 501 382 q 458 579 501 532 q 353 626 415 626 q 246 579 289 626 q 203 457 203 532 q 246 335 203 382 q 353 289 289 289 z "},"¥":{"ha":704,"x_min":28,"x_max":678,"o":"m 279 0 l 279 214 l 60 214 l 60 292 l 279 292 l 279 376 l 60 376 l 60 453 l 246 453 l 28 885 l 176 885 l 272 665 q 310 575 285 638 q 351 479 336 513 l 357 479 q 398 575 372 513 q 436 665 424 638 l 532 885 l 678 885 l 458 453 l 646 453 l 646 376 l 424 376 l 424 292 l 646 292 l 646 214 l 424 214 l 424 0 l 279 0 z "},"¦":{"ha":347,"x_min":125,"x_max":222,"o":"m 125 414 l 125 1042 l 222 1042 l 222 414 l 125 414 m 125 -347 l 125 293 l 222 293 l 222 -347 l 125 -347 z "},"§":{"ha":704,"x_min":60,"x_max":646,"o":"m 494 194 l 414 261 q 495 309 469 282 q 521 383 521 336 q 492 457 521 425 q 421 508 464 489 q 327 551 378 528 q 233 599 276 575 q 162 664 190 622 q 133 761 133 706 q 192 899 133 844 q 356 953 251 953 q 582 869 478 953 l 514 778 q 363 843 436 843 q 288 822 313 843 q 264 767 264 801 q 303 702 264 731 q 399 650 343 674 q 511 598 456 626 q 606 517 567 569 q 646 394 646 465 q 607 278 646 325 q 494 194 568 231 m 329 -99 q 79 7 169 -99 l 165 83 q 329 11 238 11 q 408 35 379 11 q 436 94 436 58 q 397 162 436 133 q 303 213 358 190 q 193 265 249 236 q 99 344 138 293 q 60 468 60 396 q 102 586 60 533 q 214 665 144 639 l 283 600 q 183 478 183 556 q 223 397 183 431 q 319 338 263 363 q 432 288 375 314 q 528 214 489 261 q 568 101 568 167 q 503 -42 568 14 q 329 -99 438 -99 z "},"¨":{"ha":760,"x_min":160,"x_max":599,"o":"m 296 830 q 285 818 296 830 q 239 807 274 807 q 182 830 204 807 q 160 886 160 853 q 182 942 160 919 q 239 965 204 965 q 296 942 274 965 q 318 886 318 919 q 296 830 318 853 m 576 830 q 565 818 576 830 q 519 807 554 807 q 463 830 485 807 q 440 886 440 853 q 463 942 440 919 q 519 965 485 965 q 576 942 554 965 q 599 886 599 919 q 576 830 599 853 z "},"©":{"ha":1036,"x_min":67,"x_max":969,"o":"m 838 115 q 773 50 838 115 q 518 -14 707 -14 q 198 115 329 -14 q 67 450 67 243 q 198 782 67 656 q 518 908 329 908 q 838 782 707 908 q 969 450 969 656 q 838 115 969 243 m 250 164 q 304 108 250 164 q 518 53 358 53 q 786 164 678 53 q 894 450 894 275 q 786 733 894 625 q 518 842 678 842 q 250 733 358 842 q 142 450 142 625 q 250 164 142 275 m 531 175 q 347 249 419 175 q 274 449 274 324 q 350 640 274 567 q 533 713 426 713 q 711 633 632 713 l 653 568 q 540 622 599 622 q 426 574 468 622 q 383 449 383 525 q 424 315 383 364 q 535 265 465 265 q 667 322 600 265 l 717 251 q 531 175 628 175 z "},"ª":{"ha":486,"x_min":49,"x_max":424,"o":"m 186 528 q 86 565 124 528 q 49 661 49 603 q 113 774 49 735 q 318 826 176 813 q 239 915 315 915 q 103 869 181 915 l 65 940 q 256 1000 158 1000 q 424 808 424 1000 l 424 539 l 339 539 l 328 589 l 322 589 q 186 528 256 528 m 219 610 q 318 660 268 610 l 318 764 q 150 671 150 746 q 219 610 150 610 z "},"«":{"ha":619,"x_min":64,"x_max":544,"o":"m 253 88 l 64 297 l 64 403 l 253 613 l 311 565 l 150 350 l 311 133 l 253 88 m 486 88 l 297 297 l 297 403 l 486 613 l 544 565 l 383 350 l 544 133 l 486 88 z "},"¬":{"ha":704,"x_min":47,"x_max":657,"o":"m 547 140 l 547 406 l 47 406 l 47 511 l 657 511 l 657 140 l 547 140 z "},"­":{"ha":442,"x_min":58,"x_max":385,"o":"m 58 296 l 58 403 l 385 403 l 385 296 l 58 296 z "},"®":{"ha":606,"x_min":36,"x_max":568,"o":"m 491 518 q 452 479 491 518 q 303 440 414 440 q 114 518 192 440 q 36 715 36 596 q 114 913 36 835 q 303 992 192 992 q 491 913 414 992 q 568 715 568 835 q 491 518 568 596 m 156 557 q 185 526 156 557 q 303 496 214 496 q 449 557 392 496 q 507 715 507 618 q 449 874 507 813 q 303 936 392 936 q 156 874 214 936 q 99 715 99 813 q 156 557 99 618 m 197 579 l 197 858 l 310 858 q 389 836 358 858 q 419 768 419 814 q 368 692 419 711 l 431 579 l 360 579 l 314 672 l 263 672 l 263 579 l 197 579 m 263 719 l 296 719 q 350 764 350 719 q 299 807 350 807 l 263 807 l 263 719 z "},"¯":{"ha":760,"x_min":188,"x_max":571,"o":"m 188 831 l 188 926 l 571 926 l 571 831 l 188 831 z "},"°":{"ha":475,"x_min":56,"x_max":422,"o":"m 369 633 q 342 608 369 633 q 239 582 315 582 q 109 633 163 582 q 56 765 56 685 q 109 899 56 847 q 239 951 163 951 q 369 899 315 951 q 422 765 422 847 q 369 633 422 685 m 166 688 q 180 672 166 688 q 239 657 194 657 q 311 688 283 657 q 339 765 339 718 q 311 845 339 814 q 239 876 283 876 q 166 845 194 876 q 138 765 138 814 q 166 688 138 718 z "},"±":{"ha":704,"x_min":47,"x_max":657,"o":"m 297 190 l 297 418 l 47 418 l 47 522 l 297 522 l 297 776 l 408 776 l 408 522 l 657 522 l 657 418 l 408 418 l 408 190 l 297 190 m 47 0 l 47 106 l 657 106 l 657 0 l 47 0 z "},"²":{"ha":514,"x_min":49,"x_max":451,"o":"m 69 539 l 69 600 q 263 784 206 719 q 319 901 319 849 q 294 978 319 950 q 224 1006 268 1006 q 113 932 165 1006 l 49 990 q 239 1097 126 1097 q 376 1051 325 1097 q 426 919 426 1004 q 398 821 426 874 q 341 736 369 768 q 244 632 313 704 l 451 632 l 451 539 l 69 539 z "},"³":{"ha":514,"x_min":46,"x_max":451,"o":"m 253 522 q 46 629 118 522 l 115 683 q 244 607 168 607 q 315 631 286 607 q 343 693 343 654 q 188 782 343 782 l 188 847 q 286 872 250 847 q 322 936 322 896 q 298 992 322 971 q 235 1013 274 1013 q 132 950 181 1013 l 68 1007 q 251 1097 147 1097 q 378 1057 326 1097 q 431 950 431 1017 q 340 819 431 864 q 420 771 389 806 q 451 686 451 736 q 394 567 451 613 q 253 522 336 522 z "},"´":{"ha":760,"x_min":299,"x_max":600,"o":"m 371 796 l 299 867 l 500 1106 l 600 1010 l 371 796 z "},"µ":{"ha":794,"x_min":106,"x_max":768,"o":"m 106 -247 l 106 679 l 250 679 l 250 271 q 276 147 250 186 q 361 107 303 107 q 444 132 407 107 q 519 225 482 157 l 519 679 l 665 679 q 656 157 656 271 q 708 101 656 101 q 750 110 728 101 l 768 1 q 674 -17 726 -17 q 533 108 554 -17 l 529 108 q 357 -12 464 -12 q 240 42 276 -12 q 251 -247 242 -135 l 106 -247 z "},"¶":{"ha":813,"x_min":56,"x_max":679,"o":"m 535 -111 l 535 910 l 679 910 l 679 -111 l 535 -111 m 408 301 q 153 379 250 301 q 56 608 56 457 q 148 838 56 767 q 397 910 240 910 l 458 910 l 458 301 l 408 301 z "},"·":{"ha":369,"x_min":89,"x_max":281,"o":"m 253 374 q 239 360 253 374 q 185 346 225 346 q 117 374 144 346 q 89 446 89 403 q 117 519 89 490 q 185 549 144 549 q 253 519 225 549 q 281 446 281 490 q 253 374 281 403 z "},"¸":{"ha":760,"x_min":246,"x_max":503,"o":"m 258 -321 l 246 -256 q 362 -235 329 -250 q 394 -189 394 -219 q 370 -148 394 -162 q 288 -125 346 -133 l 350 4 l 440 4 l 400 -87 q 503 -187 503 -111 q 258 -321 503 -310 z "},"¹":{"ha":514,"x_min":117,"x_max":346,"o":"m 236 539 l 236 954 l 117 954 l 117 1024 q 257 1081 197 1038 l 346 1081 l 346 539 l 236 539 z "},"º":{"ha":510,"x_min":39,"x_max":471,"o":"m 408 592 q 376 560 408 592 q 254 528 344 528 q 101 592 164 528 q 39 764 39 656 q 101 936 39 872 q 254 1000 164 1000 q 408 936 344 1000 q 471 764 471 872 q 408 592 471 657 m 175 654 q 189 634 175 654 q 254 614 203 614 q 334 654 306 614 q 363 764 363 694 q 334 874 363 833 q 254 915 306 915 q 175 874 203 915 q 147 764 147 833 q 175 654 147 694 z "},"»":{"ha":619,"x_min":75,"x_max":556,"o":"m 133 88 l 75 133 l 236 350 l 75 565 l 133 613 l 322 403 l 322 297 l 133 88 m 367 88 l 308 133 l 469 350 l 308 565 l 367 613 l 556 403 l 556 297 l 367 88 z "},"¼":{"ha":1097,"x_min":81,"x_max":1064,"o":"m 200 368 l 200 783 l 81 783 l 81 853 q 221 910 161 867 l 310 910 l 310 368 l 200 368 m 253 -17 l 750 926 l 842 926 l 343 -17 l 253 -17 m 886 0 l 886 296 l 893 450 l 888 450 l 822 340 l 746 211 l 1064 211 l 1064 136 l 639 136 l 639 192 l 856 542 l 983 542 l 983 0 l 886 0 z "},"½":{"ha":1140,"x_min":81,"x_max":1076,"o":"m 200 368 l 200 783 l 81 783 l 81 853 q 221 910 161 867 l 310 910 l 310 368 l 200 368 m 228 -17 l 725 926 l 817 926 l 318 -17 l 228 -17 m 694 0 l 694 61 q 888 245 831 181 q 944 363 944 310 q 919 439 944 411 q 849 467 893 467 q 738 393 790 467 l 674 451 q 864 558 751 558 q 1001 512 950 558 q 1051 381 1051 465 q 1023 282 1051 335 q 966 197 994 229 q 869 93 938 165 l 1076 93 l 1076 0 l 694 0 z "},"¾":{"ha":1115,"x_min":43,"x_max":1082,"o":"m 250 351 q 43 458 115 351 l 113 513 q 242 436 165 436 q 312 460 283 436 q 340 522 340 483 q 185 611 340 611 l 185 676 q 283 701 247 676 q 319 765 319 725 q 295 821 319 800 q 232 842 271 842 q 129 779 178 842 l 65 836 q 249 926 144 926 q 376 886 324 926 q 428 779 428 846 q 338 649 428 693 q 417 600 386 635 q 449 515 449 565 q 391 397 449 442 q 250 351 333 351 m 299 -17 l 796 926 l 888 926 l 389 -17 l 299 -17 m 904 0 l 904 296 l 911 450 l 906 450 l 840 340 l 764 211 l 1082 211 l 1082 136 l 657 136 l 657 192 l 874 542 l 1001 542 l 1001 0 l 904 0 z "},"¿":{"ha":608,"x_min":64,"x_max":554,"o":"m 307 -268 q 131 -208 197 -268 q 64 -40 64 -147 q 86 54 64 8 q 140 136 108 100 q 201 209 171 172 q 249 292 231 246 q 261 389 267 338 l 389 389 q 381 280 397 332 q 336 190 365 228 q 277 117 307 151 q 225 44 247 82 q 203 -31 203 6 q 235 -116 203 -83 q 324 -149 267 -149 q 472 -75 403 -149 l 554 -149 q 307 -268 444 -268 m 392 523 q 379 509 392 523 q 324 494 365 494 q 255 523 282 494 q 228 596 228 551 q 256 667 228 639 q 324 696 283 696 q 392 667 364 696 q 419 596 419 639 q 392 523 419 551 z "},"À":{"ha":768,"x_min":0,"x_max":769,"o":"m 0 0 l 300 910 l 468 910 l 769 0 l 615 0 l 469 492 q 385 794 432 611 l 379 794 q 294 492 335 624 l 147 0 l 0 0 m 169 257 l 169 372 l 594 372 l 594 257 l 169 257 m 403 960 l 176 1121 l 257 1217 l 467 1033 l 403 960 z "},"Á":{"ha":768,"x_min":0,"x_max":769,"o":"m 0 0 l 300 910 l 468 910 l 769 0 l 615 0 l 469 492 q 385 794 432 611 l 379 794 q 294 492 335 624 l 147 0 l 0 0 m 169 257 l 169 372 l 594 372 l 594 257 l 169 257 m 361 960 l 297 1033 l 507 1217 l 588 1121 l 361 960 z "},"Â":{"ha":768,"x_min":0,"x_max":769,"o":"m 0 0 l 300 910 l 468 910 l 769 0 l 615 0 l 469 492 q 385 794 432 611 l 379 794 q 294 492 335 624 l 147 0 l 0 0 m 169 257 l 169 372 l 594 372 l 594 257 l 169 257 m 167 1007 l 304 1163 l 460 1163 l 597 1007 l 535 964 l 385 1089 l 379 1089 l 229 964 l 167 1007 z "},"Ã":{"ha":768,"x_min":0,"x_max":769,"o":"m 0 0 l 300 910 l 468 910 l 769 0 l 615 0 l 469 492 q 385 794 432 611 l 379 794 q 294 492 335 624 l 147 0 l 0 0 m 169 257 l 169 372 l 594 372 l 594 257 l 169 257 m 485 976 q 419 991 450 976 q 368 1023 388 1006 q 326 1055 349 1040 q 283 1069 303 1069 q 222 985 231 1069 l 126 993 q 172 1126 131 1079 q 279 1172 213 1172 q 361 1149 324 1172 q 428 1103 399 1126 q 481 1081 457 1081 q 542 1164 531 1081 l 638 1157 q 592 1024 633 1071 q 485 976 551 976 z "},"Ä":{"ha":768,"x_min":0,"x_max":769,"o":"m 0 0 l 300 910 l 468 910 l 769 0 l 615 0 l 469 492 q 385 794 432 611 l 379 794 q 294 492 335 624 l 147 0 l 0 0 m 169 257 l 169 372 l 594 372 l 594 257 l 169 257 m 236 986 q 180 1008 201 986 q 158 1064 158 1031 q 180 1120 158 1099 q 236 1142 201 1142 q 292 1120 269 1142 q 314 1064 314 1099 q 292 1008 314 1031 q 236 986 269 986 m 528 986 q 472 1008 494 986 q 450 1064 450 1031 q 472 1120 450 1099 q 528 1142 494 1142 q 584 1120 563 1142 q 606 1064 606 1099 q 584 1008 606 1031 q 528 986 563 986 z "},"Å":{"ha":768,"x_min":0,"x_max":769,"o":"m 0 0 l 300 910 l 468 910 l 769 0 l 615 0 l 469 492 q 385 794 432 611 l 379 794 q 294 492 335 624 l 147 0 l 0 0 m 169 257 l 169 372 l 594 372 l 594 257 l 169 257 m 485 1005 q 465 987 485 1005 q 382 969 444 969 q 279 1005 319 969 q 239 1099 239 1040 q 279 1193 239 1157 q 382 1229 319 1229 q 485 1193 444 1229 q 525 1099 525 1157 q 485 1005 525 1040 m 382 1029 q 429 1048 410 1029 q 449 1099 449 1067 q 429 1150 449 1131 q 382 1169 410 1169 q 333 1150 353 1169 q 314 1099 314 1131 q 333 1048 314 1067 q 382 1029 353 1029 z "},"Æ":{"ha":1153,"x_min":1,"x_max":1083,"o":"m 1 0 l 464 910 l 1069 910 l 1069 786 l 696 786 l 696 536 l 1008 536 l 1008 413 l 696 413 l 696 122 l 1083 122 l 1083 0 l 550 0 l 550 797 l 544 797 q 410 513 503 706 l 154 0 l 1 0 m 210 246 l 210 361 l 633 361 l 633 246 l 210 246 z "},"Ç":{"ha":797,"x_min":69,"x_max":758,"o":"m 475 -17 q 183 108 297 -17 q 69 453 69 233 q 187 798 69 669 q 481 926 304 926 q 739 813 633 926 l 661 718 q 485 799 583 799 q 292 706 365 799 q 219 457 219 614 q 290 203 219 296 q 481 110 360 110 q 681 207 593 110 l 758 115 q 475 -17 643 -17 m 351 -321 l 339 -256 q 455 -235 422 -250 q 488 -189 488 -219 q 463 -148 488 -162 q 381 -125 439 -133 l 443 4 l 533 4 l 493 -87 q 596 -187 596 -111 q 351 -321 596 -310 z "},"È":{"ha":742,"x_min":118,"x_max":672,"o":"m 118 0 l 118 910 l 658 910 l 658 786 l 264 786 l 264 536 l 597 536 l 597 413 l 264 413 l 264 122 l 672 122 l 672 0 l 118 0 m 418 960 l 192 1121 l 272 1217 l 482 1033 l 418 960 z "},"É":{"ha":742,"x_min":118,"x_max":672,"o":"m 118 0 l 118 910 l 658 910 l 658 786 l 264 786 l 264 536 l 597 536 l 597 413 l 264 413 l 264 122 l 672 122 l 672 0 l 118 0 m 376 960 l 313 1033 l 522 1217 l 603 1121 l 376 960 z "},"Ê":{"ha":742,"x_min":118,"x_max":672,"o":"m 118 0 l 118 910 l 658 910 l 658 786 l 264 786 l 264 536 l 597 536 l 597 413 l 264 413 l 264 122 l 672 122 l 672 0 l 118 0 m 182 1007 l 319 1163 l 475 1163 l 613 1007 l 550 964 l 400 1089 l 394 1089 l 244 964 l 182 1007 z "},"Ë":{"ha":742,"x_min":118,"x_max":672,"o":"m 118 0 l 118 910 l 658 910 l 658 786 l 264 786 l 264 536 l 597 536 l 597 413 l 264 413 l 264 122 l 672 122 l 672 0 l 118 0 m 251 986 q 195 1008 217 986 q 174 1064 174 1031 q 195 1120 174 1099 q 251 1142 217 1142 q 307 1120 285 1142 q 329 1064 329 1099 q 307 1008 329 1031 q 251 986 285 986 m 543 986 q 488 1008 510 986 q 465 1064 465 1031 q 488 1120 465 1099 q 543 1142 510 1142 q 599 1120 578 1142 q 621 1064 621 1099 q 599 1008 621 1031 q 543 986 578 986 z "},"Ì":{"ha":383,"x_min":-14,"x_max":276,"o":"m 118 0 l 118 910 l 264 910 l 264 0 l 118 0 m 213 960 l -14 1121 l 67 1217 l 276 1033 l 213 960 z "},"Í":{"ha":383,"x_min":107,"x_max":397,"o":"m 118 0 l 118 910 l 264 910 l 264 0 l 118 0 m 171 960 l 107 1033 l 317 1217 l 397 1121 l 171 960 z "},"Î":{"ha":383,"x_min":-24,"x_max":407,"o":"m 118 0 l 118 910 l 264 910 l 264 0 l 118 0 m -24 1007 l 114 1163 l 269 1163 l 407 1007 l 344 964 l 194 1089 l 189 1089 l 39 964 l -24 1007 z "},"Ï":{"ha":383,"x_min":-32,"x_max":415,"o":"m 118 0 l 118 910 l 264 910 l 264 0 l 118 0 m 46 986 q -10 1008 11 986 q -32 1064 -32 1031 q -10 1120 -32 1099 q 46 1142 11 1142 q 101 1120 79 1142 q 124 1064 124 1099 q 101 1008 124 1031 q 46 986 79 986 m 338 986 q 282 1008 304 986 q 260 1064 260 1031 q 282 1120 260 1099 q 338 1142 304 1142 q 394 1120 372 1142 q 415 1064 415 1099 q 394 1008 415 1031 q 338 986 372 986 z "},"Ð":{"ha":896,"x_min":43,"x_max":826,"o":"m 43 436 l 43 507 l 154 513 l 492 513 l 492 436 l 43 436 m 150 0 l 150 910 l 388 910 q 713 794 599 910 q 826 458 826 679 q 713 119 826 238 q 396 0 600 0 l 150 0 m 296 118 l 378 118 q 600 204 524 118 q 676 458 676 290 q 378 792 676 792 l 296 792 l 296 118 z "},"Ñ":{"ha":907,"x_min":118,"x_max":788,"o":"m 118 0 l 118 910 l 268 910 l 567 378 l 663 185 l 668 185 q 650 489 650 426 l 650 910 l 788 910 l 788 0 l 639 0 l 339 533 l 244 724 l 239 724 q 257 425 257 478 l 257 0 l 118 0 m 560 976 q 494 991 525 976 q 443 1023 463 1006 q 401 1055 424 1040 q 358 1069 378 1069 q 297 985 306 1069 l 201 993 q 247 1126 206 1079 q 354 1172 288 1172 q 436 1149 399 1172 q 503 1103 474 1126 q 556 1081 532 1081 q 617 1164 606 1081 l 713 1157 q 667 1024 708 1071 q 560 976 626 976 z "},"Ò":{"ha":932,"x_min":69,"x_max":863,"o":"m 465 -17 q 179 112 289 -17 q 69 458 69 240 q 178 801 69 675 q 465 926 288 926 q 753 801 644 926 q 863 458 863 675 q 753 112 863 240 q 465 -17 643 -17 m 465 110 q 645 204 578 110 q 713 458 713 299 q 645 707 713 615 q 465 799 578 799 q 286 707 353 799 q 219 458 219 615 q 287 204 219 299 q 465 110 354 110 m 486 960 l 260 1121 l 340 1217 l 550 1033 l 486 960 z "},"Ó":{"ha":932,"x_min":69,"x_max":863,"o":"m 465 -17 q 179 112 289 -17 q 69 458 69 240 q 178 801 69 675 q 465 926 288 926 q 753 801 644 926 q 863 458 863 675 q 753 112 863 240 q 465 -17 643 -17 m 465 110 q 645 204 578 110 q 713 458 713 299 q 645 707 713 615 q 465 799 578 799 q 286 707 353 799 q 219 458 219 615 q 287 204 219 299 q 465 110 354 110 m 444 960 l 381 1033 l 590 1217 l 671 1121 l 444 960 z "},"Ô":{"ha":932,"x_min":69,"x_max":863,"o":"m 465 -17 q 179 112 289 -17 q 69 458 69 240 q 178 801 69 675 q 465 926 288 926 q 753 801 644 926 q 863 458 863 675 q 753 112 863 240 q 465 -17 643 -17 m 465 110 q 645 204 578 110 q 713 458 713 299 q 645 707 713 615 q 465 799 578 799 q 286 707 353 799 q 219 458 219 615 q 287 204 219 299 q 465 110 354 110 m 250 1007 l 388 1163 l 543 1163 l 681 1007 l 618 964 l 468 1089 l 463 1089 l 313 964 l 250 1007 z "},"Õ":{"ha":932,"x_min":69,"x_max":863,"o":"m 465 -17 q 179 112 289 -17 q 69 458 69 240 q 178 801 69 675 q 465 926 288 926 q 753 801 644 926 q 863 458 863 675 q 753 112 863 240 q 465 -17 643 -17 m 465 110 q 645 204 578 110 q 713 458 713 299 q 645 707 713 615 q 465 799 578 799 q 286 707 353 799 q 219 458 219 615 q 287 204 219 299 q 465 110 354 110 m 568 976 q 502 991 533 976 q 451 1023 471 1006 q 409 1055 432 1040 q 367 1069 386 1069 q 306 985 314 1069 l 210 993 q 255 1126 214 1079 q 363 1172 296 1172 q 444 1149 407 1172 q 511 1103 482 1126 q 564 1081 540 1081 q 625 1164 614 1081 l 721 1157 q 676 1024 717 1071 q 568 976 635 976 z "},"Ö":{"ha":932,"x_min":69,"x_max":863,"o":"m 465 -17 q 179 112 289 -17 q 69 458 69 240 q 178 801 69 675 q 465 926 288 926 q 753 801 644 926 q 863 458 863 675 q 753 112 863 240 q 465 -17 643 -17 m 465 110 q 645 204 578 110 q 713 458 713 299 q 645 707 713 615 q 465 799 578 799 q 286 707 353 799 q 219 458 219 615 q 287 204 219 299 q 465 110 354 110 m 319 986 q 263 1008 285 986 q 242 1064 242 1031 q 263 1120 242 1099 q 319 1142 285 1142 q 375 1120 353 1142 q 397 1064 397 1099 q 375 1008 397 1031 q 319 986 353 986 m 611 986 q 556 1008 578 986 q 533 1064 533 1031 q 556 1120 533 1099 q 611 1142 578 1142 q 667 1120 646 1142 q 689 1064 689 1099 q 667 1008 689 1031 q 611 986 646 986 z "},"×":{"ha":704,"x_min":68,"x_max":636,"o":"m 143 168 l 68 244 l 278 457 l 68 671 l 143 747 l 353 532 l 561 747 l 636 671 l 426 457 l 636 244 l 561 168 l 353 383 l 143 168 z "},"Ø":{"ha":932,"x_min":65,"x_max":879,"o":"m 143 -47 l 65 14 l 800 956 l 879 896 l 143 -47 m 468 -17 q 182 112 292 -17 q 72 458 72 240 q 181 801 72 675 q 468 926 290 926 q 756 801 647 926 q 865 458 865 675 q 756 112 865 240 q 468 -17 646 -17 m 468 110 q 648 204 581 110 q 715 458 715 299 q 648 707 715 615 q 468 799 581 799 q 289 707 356 799 q 222 458 222 615 q 290 204 222 299 q 468 110 357 110 z "},"Ù":{"ha":906,"x_min":114,"x_max":790,"o":"m 453 -17 q 114 390 114 -17 l 114 910 l 260 910 l 260 382 q 453 110 260 110 q 651 382 651 110 l 651 910 l 790 910 l 790 390 q 453 -17 790 -17 m 474 960 l 247 1121 l 328 1217 l 538 1033 l 474 960 z "},"Ú":{"ha":906,"x_min":114,"x_max":790,"o":"m 453 -17 q 114 390 114 -17 l 114 910 l 260 910 l 260 382 q 453 110 260 110 q 651 382 651 110 l 651 910 l 790 910 l 790 390 q 453 -17 790 -17 m 432 960 l 368 1033 l 578 1217 l 658 1121 l 432 960 z "},"Û":{"ha":906,"x_min":114,"x_max":790,"o":"m 453 -17 q 114 390 114 -17 l 114 910 l 260 910 l 260 382 q 453 110 260 110 q 651 382 651 110 l 651 910 l 790 910 l 790 390 q 453 -17 790 -17 m 238 1007 l 375 1163 l 531 1163 l 668 1007 l 606 964 l 456 1089 l 450 1089 l 300 964 l 238 1007 z "},"Ü":{"ha":906,"x_min":114,"x_max":790,"o":"m 453 -17 q 114 390 114 -17 l 114 910 l 260 910 l 260 382 q 453 110 260 110 q 651 382 651 110 l 651 910 l 790 910 l 790 390 q 453 -17 790 -17 m 307 986 q 251 1008 272 986 q 229 1064 229 1031 q 251 1120 229 1099 q 307 1142 272 1142 q 363 1120 340 1142 q 385 1064 385 1099 q 363 1008 385 1031 q 307 986 340 986 m 599 986 q 543 1008 565 986 q 521 1064 521 1031 q 543 1120 521 1099 q 599 1142 565 1142 q 655 1120 633 1142 q 676 1064 676 1099 q 655 1008 676 1031 q 599 986 633 986 z "},"Ý":{"ha":683,"x_min":-4,"x_max":688,"o":"m 269 0 l 269 343 l -4 910 l 151 910 l 257 668 q 340 469 300 558 l 346 469 q 387 563 357 494 q 432 668 417 631 l 536 910 l 688 910 l 414 343 l 414 0 l 269 0 m 321 960 l 257 1033 l 467 1217 l 547 1121 l 321 960 z "},"Þ":{"ha":825,"x_min":118,"x_max":758,"o":"m 118 0 l 118 910 l 264 910 l 264 761 l 415 761 q 758 486 758 761 q 665 269 758 342 q 415 196 571 196 l 264 196 l 264 0 l 118 0 m 264 313 l 401 313 q 614 486 614 313 q 563 608 614 572 q 401 644 511 644 l 264 644 l 264 313 z "},"ß":{"ha":825,"x_min":106,"x_max":788,"o":"m 553 -17 q 353 50 449 -17 l 407 150 q 549 93 478 93 q 625 121 597 93 q 653 190 653 149 q 626 258 653 229 q 560 306 599 286 q 482 349 521 326 q 416 408 443 371 q 389 499 389 446 q 417 593 389 549 q 474 681 446 638 q 503 769 503 724 q 475 851 503 819 q 396 882 447 882 q 287 831 325 882 q 249 681 249 779 l 249 0 l 106 0 l 106 703 q 181 917 106 838 q 397 997 257 997 q 578 936 513 997 q 643 786 643 875 q 624 699 643 740 q 583 633 606 657 q 541 577 560 608 q 522 517 522 546 q 542 467 522 489 q 591 430 561 444 q 655 394 621 415 q 719 351 689 374 q 768 289 749 329 q 788 197 788 249 q 724 44 788 104 q 553 -17 661 -17 z "},"à":{"ha":711,"x_min":68,"x_max":618,"o":"m 268 -17 q 124 38 179 -17 q 68 181 68 92 q 165 351 68 290 q 474 433 261 411 q 344 579 471 579 q 149 511 258 579 l 94 607 q 369 696 232 696 q 618 407 618 696 l 618 0 l 499 0 l 488 78 l 483 78 q 268 -17 371 -17 m 313 97 q 474 176 386 97 l 474 342 q 268 287 329 324 q 207 192 207 250 q 236 121 207 144 q 313 97 265 97 m 379 796 l 150 1010 l 250 1106 l 451 867 l 379 796 z "},"á":{"ha":711,"x_min":68,"x_max":618,"o":"m 268 -17 q 124 38 179 -17 q 68 181 68 92 q 165 351 68 290 q 474 433 261 411 q 344 579 471 579 q 149 511 258 579 l 94 607 q 369 696 232 696 q 618 407 618 696 l 618 0 l 499 0 l 488 78 l 483 78 q 268 -17 371 -17 m 313 97 q 474 176 386 97 l 474 342 q 268 287 329 324 q 207 192 207 250 q 236 121 207 144 q 313 97 265 97 m 363 796 l 290 867 l 492 1106 l 592 1010 l 363 796 z "},"â":{"ha":711,"x_min":68,"x_max":618,"o":"m 268 -17 q 124 38 179 -17 q 68 181 68 92 q 165 351 68 290 q 474 433 261 411 q 344 579 471 579 q 149 511 258 579 l 94 607 q 369 696 232 696 q 618 407 618 696 l 618 0 l 499 0 l 488 78 l 483 78 q 268 -17 371 -17 m 313 97 q 474 176 386 97 l 474 342 q 268 287 329 324 q 207 192 207 250 q 236 121 207 144 q 313 97 265 97 m 143 840 l 299 1029 l 443 1029 l 599 840 l 540 786 l 374 933 l 368 933 l 201 786 l 143 840 z "},"ã":{"ha":711,"x_min":68,"x_max":619,"o":"m 268 -17 q 124 38 179 -17 q 68 181 68 92 q 165 351 68 290 q 474 433 261 411 q 344 579 471 579 q 149 511 258 579 l 94 607 q 369 696 232 696 q 618 407 618 696 l 618 0 l 499 0 l 488 78 l 483 78 q 268 -17 371 -17 m 313 97 q 474 176 386 97 l 474 342 q 268 287 329 324 q 207 192 207 250 q 236 121 207 144 q 313 97 265 97 m 468 800 q 406 817 436 800 q 358 853 376 833 q 317 890 339 874 q 275 907 294 907 q 217 808 224 907 l 122 814 q 274 1010 129 1010 q 350 983 314 1010 q 415 929 386 956 q 467 903 443 903 q 525 1001 518 903 l 619 996 q 468 800 613 800 z "},"ä":{"ha":711,"x_min":68,"x_max":618,"o":"m 268 -17 q 124 38 179 -17 q 68 181 68 92 q 165 351 68 290 q 474 433 261 411 q 344 579 471 579 q 149 511 258 579 l 94 607 q 369 696 232 696 q 618 407 618 696 l 618 0 l 499 0 l 488 78 l 483 78 q 268 -17 371 -17 m 313 97 q 474 176 386 97 l 474 342 q 268 287 329 324 q 207 192 207 250 q 236 121 207 144 q 313 97 265 97 m 288 830 q 276 818 288 830 q 231 807 265 807 q 174 830 196 807 q 151 886 151 853 q 174 942 151 919 q 231 965 196 965 q 288 942 265 965 q 310 886 310 919 q 288 830 310 853 m 568 830 q 557 818 568 830 q 511 807 546 807 q 454 830 476 807 q 432 886 432 853 q 454 942 432 919 q 511 965 476 965 q 568 942 546 965 q 590 886 590 919 q 568 830 590 853 z "},"å":{"ha":711,"x_min":68,"x_max":618,"o":"m 268 -17 q 124 38 179 -17 q 68 181 68 92 q 165 351 68 290 q 474 433 261 411 q 344 579 471 579 q 149 511 258 579 l 94 607 q 369 696 232 696 q 618 407 618 696 l 618 0 l 499 0 l 488 78 l 483 78 q 268 -17 371 -17 m 313 97 q 474 176 386 97 l 474 342 q 268 287 329 324 q 207 192 207 250 q 236 121 207 144 q 313 97 265 97 m 490 813 q 468 793 490 813 q 371 774 446 774 q 252 813 296 774 q 208 914 208 853 q 252 1014 208 975 q 371 1053 296 1053 q 490 1014 446 1053 q 533 914 533 975 q 490 813 533 853 m 319 856 q 330 844 319 856 q 371 833 340 833 q 422 856 401 833 q 443 914 443 878 q 422 971 443 949 q 371 993 401 993 q 319 971 340 993 q 299 914 299 949 q 319 856 299 878 z "},"æ":{"ha":1090,"x_min":75,"x_max":1039,"o":"m 276 -17 q 131 38 188 -17 q 75 181 75 92 q 172 350 75 290 q 476 433 268 410 q 349 579 474 579 q 157 511 267 579 l 103 607 q 367 696 240 696 q 560 567 507 696 q 776 696 647 696 q 970 608 901 696 q 1039 372 1039 519 q 1032 301 1039 329 l 608 301 q 669 153 615 208 q 804 99 724 99 q 961 153 876 99 l 1013 56 q 785 -17 904 -17 q 547 103 646 -17 q 276 -17 410 -17 m 321 97 q 500 186 414 97 q 476 310 479 235 l 475 342 q 276 287 338 324 q 215 192 215 250 q 321 97 215 97 m 608 394 l 914 394 q 877 534 914 485 q 771 583 840 583 q 663 533 707 583 q 608 394 618 482 z "},"ç":{"ha":639,"x_min":60,"x_max":606,"o":"m 383 -17 q 151 78 242 -17 q 60 339 60 174 q 158 599 60 503 q 396 696 256 696 q 594 619 508 696 l 524 525 q 403 578 464 578 q 262 512 317 578 q 207 339 207 446 q 260 167 207 232 q 399 101 314 101 q 546 164 474 101 l 606 68 q 383 -17 508 -17 m 254 -321 l 242 -256 q 358 -235 325 -250 q 390 -189 390 -219 q 366 -148 390 -162 q 283 -125 342 -133 l 346 4 l 436 4 l 396 -87 q 499 -187 499 -111 q 254 -321 499 -310 z "},"è":{"ha":699,"x_min":60,"x_max":647,"o":"m 390 -17 q 153 79 247 -17 q 60 339 60 175 q 152 597 60 499 q 369 696 244 696 q 575 609 503 696 q 647 375 647 522 q 640 301 647 329 l 200 301 q 266 151 210 206 q 410 96 322 96 q 571 147 490 96 l 621 56 q 390 -17 513 -17 m 199 401 l 522 401 q 484 536 522 489 q 372 583 446 583 q 258 535 307 583 q 199 401 208 486 m 378 796 l 149 1010 l 249 1106 l 450 867 l 378 796 z "},"é":{"ha":699,"x_min":60,"x_max":647,"o":"m 390 -17 q 153 79 247 -17 q 60 339 60 175 q 152 597 60 499 q 369 696 244 696 q 575 609 503 696 q 647 375 647 522 q 640 301 647 329 l 200 301 q 266 151 210 206 q 410 96 322 96 q 571 147 490 96 l 621 56 q 390 -17 513 -17 m 199 401 l 522 401 q 484 536 522 489 q 372 583 446 583 q 258 535 307 583 q 199 401 208 486 m 361 796 l 289 867 l 490 1106 l 590 1010 l 361 796 z "},"ê":{"ha":699,"x_min":60,"x_max":647,"o":"m 390 -17 q 153 79 247 -17 q 60 339 60 175 q 152 597 60 499 q 369 696 244 696 q 575 609 503 696 q 647 375 647 522 q 640 301 647 329 l 200 301 q 266 151 210 206 q 410 96 322 96 q 571 147 490 96 l 621 56 q 390 -17 513 -17 m 199 401 l 522 401 q 484 536 522 489 q 372 583 446 583 q 258 535 307 583 q 199 401 208 486 m 142 840 l 297 1029 l 442 1029 l 597 840 l 539 786 l 372 933 l 367 933 l 200 786 l 142 840 z "},"ë":{"ha":699,"x_min":60,"x_max":647,"o":"m 390 -17 q 153 79 247 -17 q 60 339 60 175 q 152 597 60 499 q 369 696 244 696 q 575 609 503 696 q 647 375 647 522 q 640 301 647 329 l 200 301 q 266 151 210 206 q 410 96 322 96 q 571 147 490 96 l 621 56 q 390 -17 513 -17 m 199 401 l 522 401 q 484 536 522 489 q 372 583 446 583 q 258 535 307 583 q 199 401 208 486 m 286 830 q 275 818 286 830 q 229 807 264 807 q 172 830 194 807 q 150 886 150 853 q 172 942 150 919 q 229 965 194 965 q 286 942 264 965 q 308 886 308 919 q 286 830 308 853 m 567 830 q 556 818 567 830 q 510 807 544 807 q 453 830 475 807 q 431 886 431 853 q 453 942 431 919 q 510 965 475 965 q 567 942 544 965 q 589 886 589 919 q 567 830 589 853 z "},"ì":{"ha":356,"x_min":-43,"x_max":258,"o":"m 106 0 l 106 679 l 250 679 l 250 0 l 106 0 m 186 796 l -43 1010 l 57 1106 l 258 867 l 186 796 z "},"í":{"ha":356,"x_min":97,"x_max":399,"o":"m 106 0 l 106 679 l 250 679 l 250 0 l 106 0 m 169 796 l 97 867 l 299 1106 l 399 1010 l 169 796 z "},"î":{"ha":356,"x_min":-50,"x_max":406,"o":"m 106 0 l 106 679 l 250 679 l 250 0 l 106 0 m -50 840 l 106 1029 l 250 1029 l 406 840 l 347 786 l 181 933 l 175 933 l 8 786 l -50 840 z "},"ï":{"ha":356,"x_min":-42,"x_max":397,"o":"m 106 0 l 106 679 l 250 679 l 250 0 l 106 0 m 94 830 q 83 818 94 830 q 38 807 72 807 q -19 830 3 807 q -42 886 -42 853 q -19 942 -42 919 q 38 965 3 965 q 94 942 72 965 q 117 886 117 919 q 94 830 117 853 m 375 830 q 364 818 375 830 q 318 807 353 807 q 261 830 283 807 q 239 886 239 853 q 261 942 239 919 q 318 965 283 965 q 375 942 353 965 q 397 886 397 919 q 375 830 397 853 z "},"ð":{"ha":764,"x_min":69,"x_max":685,"o":"m 375 -17 q 159 74 249 -17 q 69 311 69 164 q 151 538 69 453 q 353 624 232 624 q 553 504 492 624 l 554 417 q 379 514 483 514 q 250 459 297 514 q 203 311 203 404 q 254 159 203 217 q 379 101 306 101 q 505 169 461 101 q 549 354 549 236 q 458 701 549 574 q 178 929 367 829 l 243 1018 q 408 915 336 969 q 547 781 481 860 q 649 597 613 703 q 685 361 685 490 q 600 88 685 192 q 375 -17 515 -17 m 192 682 l 151 750 l 632 996 l 672 928 l 192 682 z "},"ñ":{"ha":771,"x_min":106,"x_max":674,"o":"m 106 0 l 106 679 l 225 679 l 236 586 l 240 586 q 465 696 353 696 q 674 428 674 696 l 674 0 l 529 0 l 529 410 q 502 534 529 496 q 415 572 475 572 q 335 551 371 572 q 250 481 299 529 l 250 0 l 106 0 m 510 800 q 448 817 478 800 q 399 853 418 833 q 358 890 381 874 q 317 907 336 907 q 258 808 265 907 l 164 814 q 315 1010 171 1010 q 392 983 356 1010 q 456 929 428 956 q 508 903 485 903 q 567 1001 560 903 l 661 996 q 510 800 654 800 z "},"ò":{"ha":760,"x_min":60,"x_max":700,"o":"m 379 -17 q 153 80 247 -17 q 60 339 60 176 q 153 599 60 503 q 379 696 247 696 q 606 599 513 696 q 700 339 700 503 q 606 80 700 176 q 379 -17 513 -17 m 253 166 q 277 134 253 166 q 379 101 300 101 q 505 166 458 101 q 551 339 551 231 q 505 513 551 447 q 379 578 458 578 q 253 513 300 578 q 207 339 207 447 q 253 166 207 231 m 388 796 l 158 1010 l 258 1106 l 460 867 l 388 796 z "},"ó":{"ha":760,"x_min":60,"x_max":700,"o":"m 379 -17 q 153 80 247 -17 q 60 339 60 176 q 153 599 60 503 q 379 696 247 696 q 606 599 513 696 q 700 339 700 503 q 606 80 700 176 q 379 -17 513 -17 m 253 166 q 277 134 253 166 q 379 101 300 101 q 505 166 458 101 q 551 339 551 231 q 505 513 551 447 q 379 578 458 578 q 253 513 300 578 q 207 339 207 447 q 253 166 207 231 m 371 796 l 299 867 l 500 1106 l 600 1010 l 371 796 z "},"ô":{"ha":760,"x_min":60,"x_max":700,"o":"m 379 -17 q 153 80 247 -17 q 60 339 60 176 q 153 599 60 503 q 379 696 247 696 q 606 599 513 696 q 700 339 700 503 q 606 80 700 176 q 379 -17 513 -17 m 253 166 q 277 134 253 166 q 379 101 300 101 q 505 166 458 101 q 551 339 551 231 q 505 513 551 447 q 379 578 458 578 q 253 513 300 578 q 207 339 207 447 q 253 166 207 231 m 151 840 l 307 1029 l 451 1029 l 607 840 l 549 786 l 382 933 l 376 933 l 210 786 l 151 840 z "},"õ":{"ha":760,"x_min":60,"x_max":700,"o":"m 379 -17 q 153 80 247 -17 q 60 339 60 176 q 153 599 60 503 q 379 696 247 696 q 606 599 513 696 q 700 339 700 503 q 606 80 700 176 q 379 -17 513 -17 m 253 166 q 277 134 253 166 q 379 101 300 101 q 505 166 458 101 q 551 339 551 231 q 505 513 551 447 q 379 578 458 578 q 253 513 300 578 q 207 339 207 447 q 253 166 207 231 m 476 800 q 415 817 444 800 q 366 853 385 833 q 325 890 347 874 q 283 907 303 907 q 225 808 232 907 l 131 814 q 282 1010 138 1010 q 358 983 322 1010 q 423 929 394 956 q 475 903 451 903 q 533 1001 526 903 l 628 996 q 476 800 621 800 z "},"ö":{"ha":760,"x_min":60,"x_max":700,"o":"m 379 -17 q 153 80 247 -17 q 60 339 60 176 q 153 599 60 503 q 379 696 247 696 q 606 599 513 696 q 700 339 700 503 q 606 80 700 176 q 379 -17 513 -17 m 253 166 q 277 134 253 166 q 379 101 300 101 q 505 166 458 101 q 551 339 551 231 q 505 513 551 447 q 379 578 458 578 q 253 513 300 578 q 207 339 207 447 q 253 166 207 231 m 296 830 q 285 818 296 830 q 239 807 274 807 q 182 830 204 807 q 160 886 160 853 q 182 942 160 919 q 239 965 204 965 q 296 942 274 965 q 318 886 318 919 q 296 830 318 853 m 576 830 q 565 818 576 830 q 519 807 554 807 q 463 830 485 807 q 440 886 440 853 q 463 942 440 919 q 519 965 485 965 q 576 942 554 965 q 599 886 599 919 q 576 830 599 853 z "},"÷":{"ha":704,"x_min":47,"x_max":657,"o":"m 47 406 l 47 511 l 657 511 l 657 406 l 47 406 m 415 147 q 403 134 415 147 q 353 122 390 122 q 290 147 315 122 q 264 208 264 171 q 290 269 264 246 q 353 293 315 293 q 415 269 390 293 q 440 208 440 246 q 415 147 440 171 m 415 647 q 403 634 415 647 q 353 622 390 622 q 290 647 315 622 q 264 708 264 671 q 290 769 264 746 q 353 793 315 793 q 415 769 390 793 q 440 708 440 746 q 415 647 440 671 z "},"ø":{"ha":760,"x_min":60,"x_max":700,"o":"m 379 -17 q 153 80 247 -17 q 60 339 60 176 q 153 599 60 503 q 379 696 247 696 q 606 599 513 696 q 700 339 700 503 q 606 80 700 176 q 379 -17 513 -17 m 379 97 q 508 163 458 97 q 558 332 558 228 q 510 515 558 449 q 379 582 461 582 q 250 517 300 582 q 200 346 200 451 q 249 163 200 229 q 379 97 297 97 m 124 -33 l 64 14 l 636 714 l 696 667 l 124 -33 z "},"ù":{"ha":767,"x_min":97,"x_max":661,"o":"m 307 -17 q 97 251 97 -17 l 97 679 l 242 679 l 242 271 q 269 145 242 183 q 356 107 296 107 q 438 131 401 107 q 517 208 474 154 l 517 679 l 661 679 l 661 0 l 543 0 l 531 103 l 526 103 q 307 -17 428 -17 m 393 796 l 164 1010 l 264 1106 l 465 867 l 393 796 z "},"ú":{"ha":767,"x_min":97,"x_max":661,"o":"m 307 -17 q 97 251 97 -17 l 97 679 l 242 679 l 242 271 q 269 145 242 183 q 356 107 296 107 q 438 131 401 107 q 517 208 474 154 l 517 679 l 661 679 l 661 0 l 543 0 l 531 103 l 526 103 q 307 -17 428 -17 m 376 796 l 304 867 l 506 1106 l 606 1010 l 376 796 z "},"û":{"ha":767,"x_min":97,"x_max":661,"o":"m 307 -17 q 97 251 97 -17 l 97 679 l 242 679 l 242 271 q 269 145 242 183 q 356 107 296 107 q 438 131 401 107 q 517 208 474 154 l 517 679 l 661 679 l 661 0 l 543 0 l 531 103 l 526 103 q 307 -17 428 -17 m 157 840 l 313 1029 l 457 1029 l 613 840 l 554 786 l 388 933 l 382 933 l 215 786 l 157 840 z "},"ü":{"ha":767,"x_min":97,"x_max":661,"o":"m 307 -17 q 97 251 97 -17 l 97 679 l 242 679 l 242 271 q 269 145 242 183 q 356 107 296 107 q 438 131 401 107 q 517 208 474 154 l 517 679 l 661 679 l 661 0 l 543 0 l 531 103 l 526 103 q 307 -17 428 -17 m 301 830 q 290 818 301 830 q 244 807 279 807 q 188 830 210 807 q 165 886 165 853 q 188 942 165 919 q 244 965 210 965 q 301 942 279 965 q 324 886 324 919 q 301 830 324 853 m 582 830 q 571 818 582 830 q 525 807 560 807 q 468 830 490 807 q 446 886 446 853 q 468 942 446 919 q 525 965 490 965 q 582 942 560 965 q 604 886 604 919 q 582 830 604 853 z "},"ý":{"ha":674,"x_min":17,"x_max":657,"o":"m 139 -283 q 54 -269 93 -283 l 81 -157 q 131 -167 113 -167 q 272 -40 229 -167 l 286 6 l 17 679 l 164 679 l 289 332 q 319 238 299 303 q 350 140 339 174 l 356 140 q 382 233 364 167 q 410 332 400 299 l 518 679 l 657 679 l 408 -39 q 302 -222 364 -160 q 139 -283 240 -283 m 340 796 l 268 867 l 469 1106 l 569 1010 l 340 796 z "},"þ":{"ha":779,"x_min":106,"x_max":717,"o":"m 106 -275 l 106 983 l 250 983 l 250 725 l 247 615 q 442 696 344 696 q 644 603 572 696 q 717 350 717 510 q 631 83 717 183 q 425 -17 546 -17 q 247 56 338 -17 l 250 -56 l 250 -275 l 106 -275 m 396 103 q 520 168 472 103 q 568 349 568 233 q 410 576 568 576 q 250 494 333 576 l 250 164 q 396 103 322 103 z "},"ÿ":{"ha":674,"x_min":17,"x_max":657,"o":"m 139 -283 q 54 -269 93 -283 l 81 -157 q 131 -167 113 -167 q 272 -40 229 -167 l 286 6 l 17 679 l 164 679 l 289 332 q 319 238 299 303 q 350 140 339 174 l 356 140 q 382 233 364 167 q 410 332 400 299 l 518 679 l 657 679 l 408 -39 q 302 -222 364 -160 q 139 -283 240 -283 m 265 830 q 254 818 265 830 q 208 807 243 807 q 151 830 174 807 q 129 886 129 853 q 151 942 129 919 q 208 965 174 965 q 265 942 243 965 q 288 886 288 919 q 265 830 288 853 m 546 830 q 535 818 546 830 q 489 807 524 807 q 432 830 454 807 q 410 886 410 853 q 432 942 410 919 q 489 965 454 965 q 546 942 524 965 q 568 886 568 919 q 546 830 568 853 z "},"ı":{"ha":356,"x_min":106,"x_max":250,"o":"m 106 0 l 106 679 l 250 679 l 250 0 l 106 0 z "},"Œ":{"ha":1188,"x_min":69,"x_max":1118,"o":"m 514 0 q 189 119 308 0 q 69 458 69 239 q 190 794 69 678 q 521 910 310 910 l 1104 910 l 1104 786 l 732 786 l 732 536 l 1043 536 l 1043 413 l 732 413 l 732 122 l 1118 122 l 1118 0 l 514 0 m 531 118 l 586 118 l 586 792 l 531 792 q 219 458 219 792 q 299 203 219 289 q 531 118 379 118 z "},"œ":{"ha":1157,"x_min":60,"x_max":1106,"o":"m 368 -17 q 149 80 238 -17 q 60 339 60 176 q 150 599 60 503 q 371 696 240 696 q 608 543 531 696 q 709 656 649 615 q 840 696 769 696 q 1035 608 965 696 q 1106 372 1106 519 q 1100 301 1106 335 l 672 301 q 733 154 678 210 q 868 99 789 99 q 1028 153 943 99 l 1079 56 q 850 -17 971 -17 q 714 24 776 -17 q 611 136 651 64 q 368 -17 526 -17 m 371 101 q 492 167 446 101 q 538 339 538 232 q 492 512 538 446 q 371 578 446 578 q 251 512 297 578 q 206 339 206 446 q 251 167 206 232 q 371 101 297 101 m 672 394 l 981 394 q 943 534 981 485 q 836 583 906 583 q 727 533 772 583 q 672 394 682 482 z "},"ˆ":{"ha":760,"x_min":151,"x_max":607,"o":"m 151 840 l 307 1029 l 451 1029 l 607 840 l 549 786 l 382 933 l 376 933 l 210 786 l 151 840 z "},"˚":{"ha":760,"x_min":217,"x_max":542,"o":"m 498 813 q 476 793 498 813 q 379 774 454 774 q 260 813 304 774 q 217 914 217 853 q 260 1014 217 975 q 379 1053 304 1053 q 498 1014 454 1053 q 542 914 542 975 q 498 813 542 853 m 328 856 q 338 844 328 856 q 379 833 349 833 q 431 856 410 833 q 451 914 451 878 q 431 971 451 949 q 379 993 410 993 q 328 971 349 993 q 307 914 307 949 q 328 856 307 878 z "},"˜":{"ha":760,"x_min":131,"x_max":628,"o":"m 476 800 q 415 817 444 800 q 366 853 385 833 q 325 890 347 874 q 283 907 303 907 q 225 808 232 907 l 131 814 q 282 1010 138 1010 q 358 983 322 1010 q 423 929 394 956 q 475 903 451 903 q 533 1001 526 903 l 628 996 q 476 800 621 800 z "},"،":{"ha":369,"x_min":67,"x_max":304,"o":"m 272 417 l 304 336 q 203 265 239 310 q 169 164 168 219 l 178 50 l 118 143 q 182 168 143 168 q 250 143 222 168 q 278 76 278 118 q 249 9 278 35 q 179 -17 221 -17 q 97 24 126 -17 q 67 138 67 65 q 121 308 67 235 q 272 417 175 381 z "},"؛":{"ha":369,"x_min":67,"x_max":304,"o":"m 117 158 q 131 172 117 158 q 185 186 144 186 q 253 158 225 186 q 281 86 281 129 q 253 13 281 42 q 185 -17 225 -17 q 117 13 144 -17 q 89 86 89 42 q 117 158 89 129 m 272 900 l 304 819 q 203 748 239 793 q 169 647 168 703 l 178 533 l 118 626 q 182 651 143 651 q 250 626 222 651 q 278 560 278 601 q 249 492 278 518 q 179 467 221 467 q 97 508 126 467 q 67 621 67 549 q 121 791 67 718 q 272 900 175 864 z "},"؟":{"ha":608,"x_min":64,"x_max":554,"o":"m 389 290 q 381 401 397 349 q 336 491 365 453 q 277 564 307 529 q 226 636 247 599 q 204 710 204 674 q 236 796 204 763 q 324 829 268 829 q 472 754 407 829 l 554 829 q 307 947 449 947 q 131 887 197 947 q 64 719 64 826 q 86 625 64 671 q 140 544 108 579 q 201 472 171 508 q 250 388 232 435 q 263 290 268 342 l 389 290 m 256 12 q 269 -2 256 12 q 324 -17 283 -17 q 392 12 364 -17 q 419 83 419 40 q 392 157 419 128 q 324 186 364 186 q 256 157 283 186 q 228 83 228 128 q 256 12 228 40 z "},"ء":{"ha":692,"x_min":146,"x_max":547,"o":"m 547 378 l 339 378 q 244 336 274 378 q 234 292 233 314 q 242 253 235 269 l 250 238 l 293 146 l 146 146 l 146 0 l 375 0 q 463 38 436 0 q 472 54 468 46 q 476 71 475 63 q 476 86 476 79 q 472 102 475 93 q 468 115 469 111 q 463 128 467 119 q 458 139 458 138 l 414 232 l 547 232 l 547 378 z "},"آ":{"ha":285,"x_min":-101,"x_max":333,"o":"m 69 867 l 69 0 q 176 43 136 0 q 215 153 215 86 l 215 867 l 69 867 m -4 922 l -4 1026 l -32 999 l 333 999 l 333 1096 l 1 1096 q -72 1068 -42 1096 q -101 996 -101 1040 l -101 922 l -4 922 z "},"أ":{"ha":285,"x_min":7,"x_max":274,"o":"m 69 867 l 69 0 q 176 43 136 0 q 215 153 215 86 l 215 867 l 69 867 m 274 1174 l 135 1174 q 72 1144 90 1174 q 65 1115 64 1129 q 72 1092 67 1101 l 76 1081 l 106 1019 l 7 1019 l 7 922 l 160 922 q 218 947 200 922 q 215 1014 235 968 l 186 1076 l 274 1076 l 274 1174 z "},"ؤ":{"ha":650,"x_min":49,"x_max":581,"o":"m 503 0 l 503 146 l 286 146 q 233 167 254 146 q 214 210 213 188 q 275 331 222 285 q 382 376 328 376 q 436 296 436 376 l 436 0 q 401 -92 436 -53 q 317 -131 367 -131 l 49 -131 l 49 -278 l 317 -278 q 507 -194 433 -278 q 581 -1 581 -110 l 581 324 q 520 470 579 417 q 381 522 461 524 q 176 438 269 521 q 69 221 82 356 q 128 65 64 131 q 286 0 193 0 l 503 0 m 499 924 l 360 924 q 297 894 315 924 q 290 865 289 879 q 297 842 292 851 l 301 831 l 331 769 l 232 769 l 232 672 l 385 672 q 443 697 425 672 q 440 764 460 718 l 411 826 l 499 826 l 499 924 z "},"إ":{"ha":285,"x_min":7,"x_max":274,"o":"m 69 867 l 69 0 q 176 43 136 0 q 215 153 215 86 l 215 867 l 69 867 m 274 -40 l 135 -40 q 72 -69 90 -40 q 65 -99 64 -85 q 72 -122 67 -112 l 76 -133 l 106 -194 l 7 -194 l 7 -292 l 160 -292 q 218 -267 200 -292 q 215 -200 235 -246 l 186 -137 l 274 -137 l 274 -40 z "},"ئ":{"ha":876,"x_min":69,"x_max":828,"o":"m 807 200 l 615 200 q 483 124 519 200 q 507 -26 446 47 l 650 -199 l 663 -181 l 351 -181 q 252 -156 289 -181 q 215 -79 215 -131 l 215 193 l 69 193 l 69 -79 q 96 -194 69 -144 q 164 -271 122 -243 q 250 -312 206 -299 q 338 -325 294 -325 l 657 -325 q 783 -258 739 -325 q 774 -121 828 -190 l 614 72 l 600 56 l 807 56 l 807 200 m 483 532 l 344 532 q 282 503 300 532 q 275 474 274 488 q 281 450 276 460 l 286 439 l 315 378 l 217 378 l 217 281 l 369 281 q 428 306 410 281 q 425 372 444 326 l 396 435 l 483 435 l 483 532 z "},"ا":{"ha":285,"x_min":69,"x_max":215,"o":"m 69 867 l 69 0 q 176 43 136 0 q 215 153 215 86 l 215 867 l 69 867 z "},"ب":{"ha":1065,"x_min":69,"x_max":996,"o":"m 850 417 l 850 119 l 878 146 l 307 146 q 242 169 268 146 q 215 222 215 193 l 215 417 l 69 417 l 69 222 q 141 64 69 128 q 307 0 213 0 l 851 0 q 953 43 911 0 q 996 146 996 86 l 996 417 l 850 417 m 507 -100 q 497 -110 507 -100 q 486 -151 486 -121 q 507 -203 486 -182 q 558 -224 528 -224 q 610 -203 589 -224 q 631 -151 631 -182 q 610 -100 631 -121 q 558 -79 589 -79 q 507 -100 528 -79 z "},"ة":{"ha":669,"x_min":65,"x_max":600,"o":"m 482 519 q 410 401 450 456 q 354 326 371 346 q 283 258 338 307 q 226 207 228 208 q 226 158 204 179 q 261 146 239 146 l 483 146 l 454 119 l 454 506 l 600 506 l 600 146 q 558 42 600 83 q 456 0 517 0 l 261 0 q 128 51 183 0 q 69 176 74 100 q 124 311 65 251 q 179 362 143 331 q 231 409 215 393 q 270 452 247 425 q 310 508 293 479 q 343 576 326 538 l 482 519 m 467 753 q 456 742 467 753 q 446 701 446 732 q 467 650 446 671 q 518 629 488 629 q 569 650 549 629 q 590 701 590 671 q 569 753 590 732 q 518 774 549 774 q 467 753 488 774 m 222 753 q 212 742 222 753 q 201 701 201 732 q 222 650 201 671 q 274 629 243 629 q 325 650 304 629 q 346 701 346 671 q 325 753 346 732 q 274 774 304 774 q 222 753 243 774 z "},"ت":{"ha":1065,"x_min":69,"x_max":996,"o":"m 850 417 l 850 119 l 878 146 l 307 146 q 242 169 268 146 q 215 222 215 193 l 215 417 l 69 417 l 69 222 q 141 64 69 128 q 307 0 213 0 l 851 0 q 953 43 911 0 q 996 146 996 86 l 996 417 l 850 417 m 601 599 q 591 588 601 599 q 581 547 581 578 q 601 496 581 517 q 653 475 622 475 q 704 496 683 475 q 725 547 725 517 q 704 599 725 578 q 653 619 683 619 q 601 599 622 619 m 357 599 q 347 588 357 599 q 336 547 336 578 q 357 496 336 517 q 408 475 378 475 q 460 496 439 475 q 481 547 481 517 q 460 599 481 578 q 408 619 439 619 q 357 599 378 619 z "},"ث":{"ha":1065,"x_min":69,"x_max":996,"o":"m 850 417 l 850 119 l 878 146 l 307 146 q 242 169 268 146 q 215 222 215 193 l 215 417 l 69 417 l 69 222 q 141 64 69 128 q 307 0 213 0 l 851 0 q 953 43 911 0 q 996 146 996 86 l 996 417 l 850 417 m 479 772 q 469 762 479 772 q 458 721 458 751 q 479 669 458 690 q 531 649 500 649 q 582 669 561 649 q 603 721 603 690 q 582 772 603 751 q 531 793 561 793 q 479 772 500 793 m 601 599 q 591 588 601 599 q 581 547 581 578 q 601 496 581 517 q 653 475 622 475 q 704 496 683 475 q 725 547 725 517 q 704 599 725 578 q 653 619 683 619 q 601 599 622 619 m 357 599 q 347 588 357 599 q 336 547 336 578 q 357 496 336 517 q 408 475 378 475 q 460 496 439 475 q 481 547 481 517 q 460 599 481 578 q 408 619 439 619 q 357 599 378 619 z "},"ج":{"ha":789,"x_min":69,"x_max":719,"o":"m 593 -257 l 258 -257 q 214 -219 214 -257 l 214 -46 q 228 -13 214 -26 q 263 0 243 0 l 610 0 q 693 40 667 0 q 719 115 719 79 l 719 189 q 691 189 710 189 q 667 189 672 189 q 649 190 663 189 q 633 192 636 190 q 619 197 629 193 q 604 204 608 200 q 590 216 600 208 q 572 233 581 224 q 553 254 564 242 q 514 301 549 258 q 453 372 479 344 q 372 437 426 399 q 256 499 317 475 l 203 363 q 288 317 249 344 q 347 269 328 289 q 400 210 367 250 q 444 157 433 169 q 449 152 446 156 q 454 146 453 149 l 264 146 q 124 89 178 146 q 69 -46 69 32 l 69 -219 q 124 -352 69 -299 q 258 -404 178 -406 l 593 -404 l 593 -257 m 328 -81 q 317 -91 328 -81 q 307 -132 307 -101 q 328 -183 307 -162 q 379 -204 349 -204 q 431 -183 410 -204 q 451 -132 451 -162 q 431 -81 451 -101 q 379 -60 410 -60 q 328 -81 349 -60 z "},"ح":{"ha":789,"x_min":69,"x_max":719,"o":"m 593 -257 l 258 -257 q 214 -219 214 -257 l 214 -46 q 228 -13 214 -26 q 263 0 243 0 l 610 0 q 693 40 667 0 q 719 115 719 79 l 719 189 q 691 189 710 189 q 667 189 672 189 q 649 190 663 189 q 633 192 636 190 q 619 197 629 193 q 604 204 608 200 q 590 216 600 208 q 572 233 581 224 q 553 254 564 242 q 514 301 549 258 q 453 372 479 344 q 372 437 426 399 q 256 499 317 475 l 203 363 q 288 317 249 344 q 347 269 328 289 q 400 210 367 250 q 444 157 433 169 q 449 152 446 156 q 454 146 453 149 l 264 146 q 124 89 178 146 q 69 -46 69 32 l 69 -219 q 124 -352 69 -299 q 258 -404 178 -406 l 593 -404 l 593 -257 z "},"خ":{"ha":789,"x_min":69,"x_max":719,"o":"m 593 -257 l 258 -257 q 214 -219 214 -257 l 214 -46 q 228 -13 214 -26 q 263 0 243 0 l 610 0 q 693 40 667 0 q 719 115 719 79 l 719 189 q 691 189 710 189 q 667 189 672 189 q 649 190 663 189 q 633 192 636 190 q 619 197 629 193 q 604 204 608 200 q 590 216 600 208 q 572 233 581 224 q 553 254 564 242 q 514 301 549 258 q 453 372 479 344 q 372 437 426 399 q 256 499 317 475 l 203 363 q 288 317 249 344 q 347 269 328 289 q 400 210 367 250 q 444 157 433 169 q 449 152 446 156 q 454 146 453 149 l 264 146 q 124 89 178 146 q 69 -46 69 32 l 69 -219 q 124 -352 69 -299 q 258 -404 178 -406 l 593 -404 l 593 -257 m 300 686 q 290 676 300 686 q 279 635 279 665 q 300 583 279 604 q 351 563 321 563 q 403 583 382 563 q 424 635 424 604 q 403 686 424 665 q 351 707 382 707 q 300 686 321 707 z "},"د":{"ha":693,"x_min":69,"x_max":582,"o":"m 218 393 q 296 349 264 369 q 365 295 328 329 q 419 216 401 261 q 435 117 436 171 l 463 146 l 69 146 l 69 0 l 436 0 q 540 42 497 0 q 582 144 582 83 q 558 266 582 208 q 505 361 535 324 q 427 435 475 399 q 351 488 379 471 q 282 524 322 504 l 218 393 z "},"ذ":{"ha":693,"x_min":69,"x_max":582,"o":"m 218 393 q 296 349 264 369 q 365 295 328 329 q 419 216 401 261 q 435 117 436 171 l 463 146 l 69 146 l 69 0 l 436 0 q 540 42 497 0 q 582 144 582 83 q 558 266 582 208 q 505 361 535 324 q 427 435 475 399 q 351 488 379 471 q 282 524 322 504 l 218 393 m 217 718 q 206 708 217 718 q 196 667 196 697 q 217 615 196 636 q 268 594 238 594 q 319 615 299 594 q 340 667 340 636 q 319 718 340 697 q 268 739 299 739 q 217 718 238 739 z "},"ر":{"ha":478,"x_min":0,"x_max":408,"o":"m 261 260 l 261 -1 q 228 -97 261 -60 q 142 -133 194 -133 l 0 -133 l 0 -278 l 142 -278 q 333 -197 257 -278 q 408 -1 408 -115 l 408 260 l 261 260 z "},"ز":{"ha":478,"x_min":0,"x_max":408,"o":"m 261 260 l 261 -1 q 228 -97 261 -60 q 142 -133 194 -133 l 0 -133 l 0 -278 l 142 -278 q 333 -197 257 -278 q 408 -1 408 -115 l 408 260 l 261 260 m 276 539 q 266 528 276 539 q 256 488 256 518 q 276 436 256 457 q 328 415 297 415 q 379 436 358 415 q 400 488 400 457 q 379 539 400 518 q 328 560 358 560 q 276 539 297 560 z "},"س":{"ha":1308,"x_min":69,"x_max":1239,"o":"m 838 522 l 838 117 q 842 122 839 118 q 851 131 844 125 q 861 142 857 138 l 864 146 l 722 146 l 722 0 l 836 0 q 940 42 896 0 q 983 144 983 83 l 983 522 l 838 522 m 1093 522 l 1093 117 q 1097 122 1094 118 q 1106 131 1100 125 q 1117 142 1113 138 l 1119 146 l 978 146 l 978 0 l 1092 0 q 1195 42 1151 0 q 1239 144 1239 83 l 1239 522 l 1093 522 m 582 525 l 582 -161 l 610 -135 l 188 -135 l 215 -161 l 215 257 l 69 257 l 69 -129 q 110 -234 69 -187 q 211 -281 150 -281 l 582 -281 q 685 -238 643 -281 q 728 -135 728 -196 l 728 525 l 582 525 z "},"ش":{"ha":1308,"x_min":69,"x_max":1239,"o":"m 838 522 l 838 117 q 842 122 839 118 q 851 131 844 125 q 861 142 857 138 l 864 146 l 722 146 l 722 0 l 836 0 q 940 42 896 0 q 983 144 983 83 l 983 522 l 838 522 m 1093 522 l 1093 117 q 1097 122 1094 118 q 1106 131 1100 125 q 1117 142 1113 138 l 1119 146 l 978 146 l 978 0 l 1092 0 q 1195 42 1151 0 q 1239 144 1239 83 l 1239 522 l 1093 522 m 582 525 l 582 -161 l 610 -135 l 188 -135 l 215 -161 l 215 257 l 69 257 l 69 -129 q 110 -234 69 -187 q 211 -281 150 -281 l 582 -281 q 685 -238 643 -281 q 728 -135 728 -196 l 728 525 l 582 525 m 842 936 q 831 926 842 936 q 821 885 821 915 q 842 833 821 854 q 893 813 863 813 q 944 833 924 813 q 965 885 965 854 q 944 936 965 915 q 893 957 924 957 q 842 936 863 957 m 964 763 q 953 752 964 763 q 943 711 943 742 q 964 660 943 681 q 1015 639 985 639 q 1067 660 1046 639 q 1088 711 1088 681 q 1067 763 1088 742 q 1015 783 1046 783 q 964 763 985 783 m 719 763 q 709 752 719 763 q 699 711 699 742 q 719 660 699 681 q 771 639 740 639 q 822 660 801 639 q 843 711 843 681 q 822 763 843 742 q 771 783 801 783 q 719 763 740 783 z "},"ص":{"ha":1431,"x_min":69,"x_max":1363,"o":"m 582 385 l 582 -161 l 610 -135 l 188 -135 l 215 -161 l 215 257 l 69 257 l 69 -129 q 110 -234 69 -187 q 211 -281 150 -281 l 582 -281 q 685 -238 643 -281 q 728 -135 728 -196 l 728 385 l 582 385 m 668 131 l 801 61 q 1151 375 1035 417 q 1197 333 1182 361 q 1213 236 1213 304 l 1213 117 l 1243 146 l 656 146 l 656 0 l 1214 0 q 1319 43 1275 0 q 1361 147 1363 86 l 1358 239 q 1206 511 1354 449 q 1119 526 1163 528 q 1040 515 1075 525 q 964 476 1006 506 q 897 423 922 446 q 831 352 871 400 q 774 280 792 304 q 717 201 756 256 q 668 131 679 146 z "},"ض":{"ha":1431,"x_min":69,"x_max":1363,"o":"m 582 385 l 582 -161 l 610 -135 l 188 -135 l 215 -161 l 215 257 l 69 257 l 69 -129 q 110 -234 69 -187 q 211 -281 150 -281 l 582 -281 q 685 -238 643 -281 q 728 -135 728 -196 l 728 385 l 582 385 m 668 131 l 801 61 q 1151 375 1035 417 q 1197 333 1182 361 q 1213 236 1213 304 l 1213 117 l 1243 146 l 656 146 l 656 0 l 1214 0 q 1319 43 1275 0 q 1361 147 1363 86 l 1358 239 q 1206 511 1354 449 q 1119 526 1163 528 q 1040 515 1075 525 q 964 476 1006 506 q 897 423 922 446 q 831 352 871 400 q 774 280 792 304 q 717 201 756 256 q 668 131 679 146 m 793 672 q 783 662 793 672 q 772 621 772 651 q 793 569 772 590 q 844 549 814 549 q 896 569 875 549 q 917 621 917 590 q 896 672 917 651 q 844 693 875 693 q 793 672 814 693 z "},"ط":{"ha":931,"x_min":69,"x_max":863,"o":"m 69 0 l 167 0 l 167 146 l 69 146 l 69 0 m 179 867 l 179 122 l 326 122 l 326 867 l 179 867 m 168 131 l 301 61 q 651 375 535 417 q 697 333 682 361 q 713 236 713 304 l 713 117 l 743 146 l 156 146 l 156 0 l 714 0 q 819 43 775 0 q 861 147 863 86 l 858 239 q 706 511 854 449 q 619 526 663 528 q 540 515 575 525 q 464 476 506 506 q 397 423 422 446 q 331 352 371 400 q 274 280 292 304 q 217 201 256 256 q 168 131 179 146 z "},"ظ":{"ha":931,"x_min":69,"x_max":863,"o":"m 69 0 l 167 0 l 167 146 l 69 146 l 69 0 m 179 867 l 179 122 l 326 122 l 326 867 l 179 867 m 168 131 l 301 61 q 651 375 535 417 q 697 333 682 361 q 713 236 713 304 l 713 117 l 743 146 l 156 146 l 156 0 l 714 0 q 819 43 775 0 q 861 147 863 86 l 858 239 q 706 511 854 449 q 619 526 663 528 q 540 515 575 525 q 464 476 506 506 q 397 423 422 446 q 331 352 371 400 q 274 280 292 304 q 217 201 256 256 q 168 131 179 146 m 492 725 q 481 715 492 725 q 471 674 471 704 q 492 622 471 643 q 543 601 513 601 q 594 622 574 601 q 615 674 615 643 q 594 725 615 704 q 543 746 574 746 q 492 725 513 746 z "},"ع":{"ha":669,"x_min":69,"x_max":600,"o":"m 600 -233 l 188 -233 l 215 -261 l 215 28 l 188 0 l 600 0 l 600 146 l 203 146 q 107 105 144 146 q 69 7 69 64 l 69 -240 q 107 -338 69 -297 q 200 -379 144 -379 l 600 -379 l 600 -233 m 574 422 q 499 449 524 442 q 233 414 324 497 q 179 299 182 367 q 212 163 176 232 q 313 24 247 93 l 421 124 q 345 229 367 183 q 326 289 324 275 q 332 307 328 303 q 460 307 364 333 q 518 286 485 300 l 574 422 z "},"غ":{"ha":669,"x_min":69,"x_max":600,"o":"m 600 -233 l 188 -233 l 215 -261 l 215 28 l 188 0 l 600 0 l 600 146 l 203 146 q 107 105 144 146 q 69 7 69 64 l 69 -240 q 107 -338 69 -297 q 200 -379 144 -379 l 600 -379 l 600 -233 m 574 422 q 499 449 524 442 q 233 414 324 497 q 179 299 182 367 q 212 163 176 232 q 313 24 247 93 l 421 124 q 345 229 367 183 q 326 289 324 275 q 332 307 328 303 q 460 307 364 333 q 518 286 485 300 l 574 422 m 307 694 q 297 684 307 694 q 286 643 286 674 q 307 592 286 613 q 358 571 328 571 q 410 592 389 571 q 431 643 431 613 q 410 694 431 674 q 358 715 389 715 q 307 694 328 715 z "},"ـ":{"ha":361,"x_min":-7,"x_max":368,"o":"m 368 0 l 368 146 l -7 146 l -7 0 l 368 0 z "},"ف":{"ha":1182,"x_min":69,"x_max":1113,"o":"m 1040 26 l 1040 132 q 870 131 932 124 q 786 151 808 138 q 743 199 764 164 q 736 284 722 238 q 782 351 750 331 q 885 367 829 381 q 944 329 921 357 q 967 264 967 301 l 967 -158 l 993 -131 l 279 -131 q 215 -74 215 -131 l 215 138 l 69 138 l 69 -74 q 131 -221 69 -164 q 279 -278 192 -278 l 963 -278 q 1069 -233 1026 -278 q 1113 -129 1113 -189 l 1113 264 q 1075 401 1113 340 q 966 494 1035 465 q 827 515 897 522 q 703 474 757 508 q 594 325 624 422 q 619 124 565 228 q 672 66 640 89 q 733 33 703 43 q 808 19 763 22 q 883 17 853 15 q 965 22 913 18 q 1040 26 1017 25 m 788 717 q 777 706 788 717 q 767 665 767 696 q 788 614 767 635 q 839 593 808 593 q 890 614 869 593 q 911 665 911 635 q 890 717 911 696 q 839 738 869 738 q 788 717 808 738 z "},"ق":{"ha":1085,"x_min":69,"x_max":1015,"o":"m 943 28 l 943 133 q 773 132 835 125 q 689 152 711 139 q 646 200 667 165 q 639 285 625 239 q 685 353 653 332 q 788 368 732 382 q 847 331 824 358 q 869 265 869 303 l 869 -158 l 896 -131 l 279 -131 q 215 -74 215 -131 l 215 263 l 69 263 l 69 -74 q 131 -221 69 -164 q 279 -278 192 -278 l 865 -278 q 972 -233 929 -278 q 1015 -129 1015 -189 l 1015 265 q 978 403 1015 342 q 869 495 938 467 q 730 517 800 524 q 606 475 660 510 q 497 326 526 424 q 522 125 468 229 q 574 67 543 90 q 635 34 606 44 q 710 20 665 24 q 785 18 756 17 q 867 23 815 19 q 943 28 919 26 m 813 717 q 802 706 813 717 q 792 665 792 696 q 813 614 792 635 q 864 593 833 593 q 915 614 894 593 q 936 665 936 635 q 915 717 936 696 q 864 738 894 738 q 813 717 833 738 m 568 717 q 558 706 568 717 q 547 665 547 696 q 568 614 547 635 q 619 593 589 593 q 671 614 650 593 q 692 665 692 635 q 671 717 692 696 q 619 738 650 738 q 568 717 589 738 z "},"ك":{"ha":854,"x_min":69,"x_max":785,"o":"m 639 867 l 639 117 q 643 122 640 118 q 652 131 646 125 q 661 142 658 138 l 665 146 l 190 146 l 190 0 l 638 0 q 741 42 697 0 q 785 144 785 83 l 785 867 l 639 867 m 211 146 l 69 146 l 190 0 l 332 0 l 211 146 m 501 628 l 363 628 q 300 599 318 628 q 293 569 292 583 q 300 544 294 556 l 304 535 l 333 474 l 235 474 l 235 376 l 388 376 q 446 401 428 376 q 443 468 463 422 l 414 531 l 501 531 l 501 628 z "},"ل":{"ha":796,"x_min":69,"x_max":726,"o":"m 581 867 l 581 -89 l 610 -61 l 188 -61 l 215 -89 l 215 203 l 69 203 l 69 -60 q 113 -164 69 -122 q 218 -206 157 -206 l 579 -206 q 684 -161 642 -206 q 726 -58 726 -117 l 726 867 l 581 867 z "},"م":{"ha":936,"x_min":69,"x_max":867,"o":"m 211 146 l 332 0 l 190 0 l 69 146 l 211 146 m 350 117 l 350 331 q 413 483 350 424 q 578 544 479 549 q 746 468 678 540 q 867 226 867 340 q 820 97 867 150 q 711 22 774 43 q 579 0 649 0 l 489 0 l 489 146 l 579 146 q 685 170 650 146 q 721 225 721 194 q 640 368 721 285 q 572 399 613 397 q 514 379 532 400 q 496 331 496 361 l 496 144 q 452 42 496 83 q 349 0 408 0 l 211 0 l 211 146 l 376 146 l 369 139 q 357 124 364 131 l 350 117 z "},"ن":{"ha":790,"x_min":69,"x_max":721,"o":"m 575 261 l 575 -142 l 603 -114 l 385 -114 q 256 -77 297 -114 q 215 -4 215 -40 l 215 260 l 69 260 l 69 -4 q 159 -191 69 -121 q 385 -261 249 -261 l 576 -261 q 679 -218 638 -261 q 721 -115 721 -175 l 721 261 l 575 261 m 356 471 q 345 460 356 471 q 335 419 335 450 q 356 368 335 389 q 407 347 376 347 q 458 368 438 347 q 479 419 479 389 q 458 471 479 450 q 407 492 438 492 q 356 471 376 492 z "},"ه":{"ha":669,"x_min":65,"x_max":600,"o":"m 482 519 q 410 401 450 456 q 354 326 371 346 q 283 258 338 307 q 226 207 228 208 q 226 158 204 179 q 261 146 239 146 l 483 146 l 454 119 l 454 506 l 600 506 l 600 146 q 558 42 600 83 q 456 0 517 0 l 261 0 q 128 51 183 0 q 69 176 74 100 q 124 311 65 251 q 179 362 143 331 q 231 409 215 393 q 270 452 247 425 q 310 508 293 479 q 343 576 326 538 l 482 519 z "},"و":{"ha":650,"x_min":49,"x_max":581,"o":"m 503 0 l 503 146 l 286 146 q 233 167 254 146 q 214 210 213 188 q 275 331 222 285 q 382 376 328 376 q 436 296 436 376 l 436 0 q 401 -92 436 -53 q 317 -131 367 -131 l 49 -131 l 49 -278 l 317 -278 q 507 -194 433 -278 q 581 -1 581 -110 l 581 324 q 520 470 579 417 q 381 522 461 524 q 176 438 269 521 q 69 221 82 356 q 128 65 64 131 q 286 0 193 0 l 503 0 z "},"ى":{"ha":876,"x_min":69,"x_max":828,"o":"m 807 200 l 615 200 q 483 124 519 200 q 507 -26 446 47 l 650 -199 l 663 -181 l 351 -181 q 252 -156 289 -181 q 215 -79 215 -131 l 215 193 l 69 193 l 69 -79 q 96 -194 69 -144 q 164 -271 122 -243 q 250 -312 206 -299 q 338 -325 294 -325 l 657 -325 q 783 -258 739 -325 q 774 -121 828 -190 l 614 72 l 600 56 l 807 56 l 807 200 z "},"ي":{"ha":876,"x_min":69,"x_max":828,"o":"m 807 200 l 615 200 q 483 124 519 200 q 507 -26 446 47 l 650 -199 l 663 -181 l 351 -181 q 252 -156 289 -181 q 215 -79 215 -131 l 215 193 l 69 193 l 69 -79 q 96 -194 69 -144 q 164 -271 122 -243 q 250 -312 206 -299 q 338 -325 294 -325 l 657 -325 q 783 -258 739 -325 q 774 -121 828 -190 l 614 72 l 600 56 l 807 56 l 807 200 m 521 -399 q 510 -409 521 -399 q 500 -450 500 -419 q 521 -501 500 -481 q 572 -522 542 -522 q 624 -501 603 -522 q 644 -450 644 -481 q 624 -399 644 -419 q 572 -378 603 -378 q 521 -399 542 -378 m 276 -399 q 266 -409 276 -399 q 256 -450 256 -419 q 276 -501 256 -481 q 328 -522 297 -522 q 379 -501 358 -522 q 400 -450 400 -481 q 379 -399 400 -419 q 328 -378 358 -378 q 276 -399 297 -378 z "},"ً":{"ha":0,"x_min":-176,"x_max":176,"o":"m -172 -7 q -154 -26 -168 -21 q -125 -28 -140 -32 l 150 74 q 170 91 164 78 q 172 119 176 104 q 154 139 168 133 q 125 140 140 144 l -150 40 q -170 22 -164 36 q -172 -7 -176 8 m -172 140 q -154 121 -168 126 q -125 119 -140 115 l 150 221 q 170 238 164 225 q 172 267 176 251 q 154 286 168 281 q 125 288 140 292 l -150 188 q -170 169 -164 183 q -172 140 -176 156 z "},"ٌ":{"ha":0,"x_min":-208,"x_max":213,"o":"m 4 57 l -65 32 q -96 32 -81 25 q -115 53 -111 39 l -136 107 q -153 127 -140 121 q -182 129 -167 133 q -202 111 -196 125 q -204 82 -208 97 l -183 28 q -124 -35 -167 -17 q -40 -37 -82 -53 l 151 33 q 200 78 188 47 q 201 142 213 110 q 141 210 186 185 q 43 219 96 235 q -8 174 8 210 q -12 103 -25 139 l 4 57 m 72 82 l 56 125 q 64 149 50 139 q 108 143 88 154 q 133 117 129 132 l 133 115 q 129 104 135 106 l 126 103 l 72 82 z "},"ٍ":{"ha":0,"x_min":-176,"x_max":176,"o":"m -172 -328 q -154 -347 -168 -342 q -125 -349 -140 -353 l 150 -247 q 170 -230 164 -243 q 172 -201 176 -217 q 154 -182 168 -187 q 125 -181 140 -176 l -150 -281 q -170 -299 -164 -285 q -172 -328 -176 -312 m -172 -181 q -154 -200 -168 -194 q -125 -201 -140 -206 l 150 -100 q 170 -83 164 -96 q 172 -54 176 -69 q 154 -35 168 -40 q 125 -33 140 -29 l -150 -133 q -170 -151 -164 -137 q -172 -181 -176 -165 z "},"َ":{"ha":0,"x_min":-176,"x_max":176,"o":"m -172 -4 q -154 -24 -168 -18 q -125 -25 -140 -29 l 150 76 q 170 94 164 81 q 172 122 176 107 q 154 142 168 136 q 125 143 140 147 l -150 43 q -170 25 -164 39 q -172 -4 -176 11 z "},"ُ":{"ha":0,"x_min":-169,"x_max":174,"o":"m -36 64 l -144 24 q -164 6 -158 19 q -165 -22 -169 -7 q -148 -42 -161 -36 q -119 -43 -135 -47 l 113 40 q 161 86 149 54 q 163 149 174 118 q 103 217 147 192 q 6 226 58 242 q -46 181 -29 217 q -50 110 -62 146 l -36 64 m 33 89 l 18 132 q 25 156 13 147 q 70 150 49 161 q 96 124 92 139 q 98 114 99 115 q 88 110 97 113 l 33 89 z "},"ِ":{"ha":0,"x_min":-176,"x_max":176,"o":"m -172 -179 q -154 -199 -168 -193 q -125 -200 -140 -204 l 150 -99 q 170 -81 164 -94 q 172 -53 176 -68 q 154 -33 168 -39 q 125 -32 140 -28 l -150 -132 q -170 -150 -164 -136 q -172 -179 -176 -164 z "},"ّ":{"ha":0,"x_min":-172,"x_max":172,"o":"m -67 -3 q -103 24 -74 24 l -103 153 q -112 179 -103 168 q -137 190 -122 190 q -162 179 -153 190 q -172 153 -172 168 l -172 15 q -158 -32 -172 -15 q -92 -49 -135 -60 q -70 -31 -78 -44 q -67 -3 -62 -18 m -25 -26 q 17 -1 -1 -19 q 36 43 36 18 l 36 181 q 25 206 36 196 q -3 215 14 215 q -28 206 -18 215 q -39 181 -39 196 l -39 49 l -112 22 q -133 3 -126 18 q -136 -26 -140 -11 q -118 -47 -132 -40 q -89 -49 -104 -53 l -25 -26 m 21 31 q 40 10 25 17 q 69 7 54 3 l 122 26 q 172 93 172 44 l 172 231 q 138 265 172 265 q 103 231 103 265 l 103 99 l 44 78 q 24 60 31 74 q 21 31 17 46 z "},"ْ":{"ha":0,"x_min":-150,"x_max":150,"o":"m -56 45 q -68 57 -56 45 q -79 101 -79 68 q -56 157 -79 135 q 0 179 -33 179 q 56 157 33 179 q 79 101 79 135 q 56 45 79 68 q 0 22 33 22 q -56 45 -33 22 m -106 208 q -128 186 -106 208 q -150 101 -150 164 q -106 -6 -150 39 q 0 -50 -62 -50 q 106 -6 63 -50 q 150 101 150 39 q 106 208 150 164 q 0 251 63 251 q -106 208 -62 251 z "},"ٓ":{"ha":0,"x_min":-242,"x_max":193,"o":"m -144 0 l -144 104 l -172 76 l 193 76 l 193 174 l -139 174 q -212 146 -182 174 q -242 74 -242 118 l -242 0 l -144 0 z "},"ٔ":{"ha":0,"x_min":-133,"x_max":133,"o":"m 133 251 l -6 251 q -68 222 -50 251 q -75 193 -76 207 q -69 169 -74 179 l -64 158 l -35 97 l -133 97 l -133 0 l 19 0 q 78 25 60 0 q 75 92 94 46 l 46 154 l 133 154 l 133 251 z "},"ٕ":{"ha":0,"x_min":-133,"x_max":133,"o":"m 133 0 l -6 0 q -68 -29 -50 0 q -75 -58 -76 -44 q -69 -83 -74 -72 l -64 -93 l -35 -154 l -133 -154 l -133 -251 l 19 -251 q 78 -226 60 -251 q 75 -160 94 -206 l 46 -97 l 133 -97 l 133 0 z "},"ٖ":{"ha":0,"x_min":-25,"x_max":25,"o":"m 25 0 l -25 0 l -25 -247 q 25 -201 25 -247 l 25 0 z "},"٠":{"ha":486,"x_min":139,"x_max":347,"o":"m 169 531 q 154 515 169 531 q 139 457 139 500 q 169 383 139 414 q 243 353 200 353 q 317 383 286 353 q 347 457 347 414 q 317 531 347 500 q 243 561 286 561 q 169 531 200 561 z "},"١":{"ha":424,"x_min":139,"x_max":285,"o":"m 139 915 l 139 0 l 285 0 l 285 915 l 139 915 z "},"٢":{"ha":525,"x_min":69,"x_max":456,"o":"m 215 0 l 215 796 q 211 791 214 794 q 202 781 208 788 q 192 771 196 775 l 189 767 l 456 767 l 456 913 l 217 913 q 113 871 157 913 q 69 768 69 829 l 69 0 l 215 0 z "},"٣":{"ha":794,"x_min":69,"x_max":725,"o":"m 325 917 l 325 635 q 329 640 326 636 q 338 649 332 643 q 348 660 344 656 q 350 664 351 664 l 211 664 l 211 518 l 322 518 q 426 560 383 518 q 469 663 469 601 l 469 917 l 325 917 m 581 917 l 581 635 q 585 640 582 636 q 594 649 588 643 q 603 660 600 656 q 606 664 607 664 l 464 664 l 464 518 l 578 518 q 682 560 639 518 q 725 663 725 601 l 725 917 l 581 917 m 69 917 l 69 0 l 215 0 l 215 917 l 69 917 z "},"٤":{"ha":644,"x_min":69,"x_max":576,"o":"m 379 903 l 161 742 q 94 638 100 697 q 153 529 89 578 l 269 449 l 125 240 q 115 226 125 239 q 102 207 106 213 q 91 188 99 201 q 80 163 83 174 q 73 136 76 151 q 69 106 69 121 q 104 31 69 61 q 182 0 139 0 l 575 0 l 576 144 l 210 146 l 226 129 l 251 167 l 411 399 q 434 472 436 431 q 394 539 432 514 l 239 647 l 239 618 l 288 654 l 467 786 l 379 903 z "},"٥":{"ha":801,"x_min":67,"x_max":732,"o":"m 519 850 q 398 883 463 885 q 278 844 333 881 q 133 653 194 790 q 69 372 72 517 q 146 88 67 193 q 404 -17 225 -18 q 563 16 496 -17 q 666 104 631 49 q 717 222 701 160 q 732 356 732 285 q 672 649 731 506 q 519 850 613 793 m 443 725 q 537 582 489 697 q 586 356 585 467 q 545 186 588 244 q 403 128 503 128 q 258 190 299 129 q 221 364 217 251 q 268 582 226 472 q 357 722 310 692 q 443 725 401 751 z "},"٦":{"ha":654,"x_min":69,"x_max":585,"o":"m 439 0 l 439 794 q 443 790 440 793 q 452 780 446 786 q 461 769 458 774 l 465 765 l 69 765 l 69 911 l 438 911 q 541 869 497 911 q 585 767 585 828 l 585 0 l 439 0 z "},"٧":{"ha":817,"x_min":69,"x_max":749,"o":"m 607 904 l 415 172 l 444 172 l 208 908 l 69 864 l 326 64 q 367 8 338 29 q 431 -12 396 -12 q 501 10 472 -12 q 539 67 531 32 l 749 868 l 607 904 z "},"٨":{"ha":817,"x_min":69,"x_max":749,"o":"m 607 -8 l 415 725 l 444 725 l 208 -11 l 69 33 l 326 833 q 367 889 338 868 q 431 910 396 910 q 501 886 472 908 q 539 831 531 864 l 749 29 l 607 -8 z "},"٩":{"ha":672,"x_min":50,"x_max":604,"o":"m 500 393 l 500 539 q 410 540 449 540 q 344 540 371 539 q 297 544 317 540 q 262 558 276 547 q 235 586 247 568 q 222 687 207 643 q 271 749 236 731 l 275 751 q 360 765 301 772 q 442 724 418 757 q 458 660 458 700 l 458 0 l 604 0 l 604 660 q 565 800 604 739 q 453 892 524 864 q 315 914 383 921 q 194 874 246 907 q 78 721 107 824 q 111 508 50 618 l 111 506 l 113 504 q 176 439 142 464 q 254 405 210 414 q 330 393 299 396 q 418 392 361 390 q 500 393 475 394 z "},"٪":{"ha":725,"x_min":44,"x_max":681,"o":"m 54 -17 l 172 -17 l 671 926 l 551 926 l 54 -17 m 503 161 q 488 146 503 161 q 472 88 472 131 q 503 14 472 44 q 576 -17 533 -17 q 650 14 619 -17 q 681 88 681 44 q 650 161 681 131 q 576 192 619 192 q 503 161 533 192 m 75 896 q 60 881 75 896 q 44 822 44 865 q 75 749 44 779 q 149 718 106 718 q 222 749 192 718 q 253 822 253 779 q 222 896 253 865 q 149 926 192 926 q 75 896 106 926 z "},"٫":{"ha":199,"x_min":-196,"x_max":110,"o":"m 0 146 l 0 -3 q -25 -75 0 -47 q -90 -103 -50 -103 l -196 -103 l -196 -211 l -90 -211 q 53 -149 -4 -211 q 110 -3 110 -87 l 110 146 l 0 146 z "},"ٮ":{"ha":1065,"x_min":69,"x_max":996,"o":"m 850 417 l 850 119 l 878 146 l 307 146 q 242 169 268 146 q 215 222 215 193 l 215 417 l 69 417 l 69 222 q 141 64 69 128 q 307 0 213 0 l 851 0 q 953 43 911 0 q 996 146 996 86 l 996 417 l 850 417 z "},"ٯ":{"ha":1085,"x_min":69,"x_max":1015,"o":"m 943 28 l 943 133 q 773 132 835 125 q 689 152 711 139 q 646 200 667 165 q 639 285 625 239 q 685 353 653 332 q 788 368 732 382 q 847 331 824 358 q 869 265 869 303 l 869 -158 l 896 -131 l 279 -131 q 215 -74 215 -131 l 215 263 l 69 263 l 69 -74 q 131 -221 69 -164 q 279 -278 192 -278 l 865 -278 q 972 -233 929 -278 q 1015 -129 1015 -189 l 1015 265 q 978 403 1015 342 q 869 495 938 467 q 730 517 800 524 q 606 475 660 510 q 497 326 526 424 q 522 125 468 229 q 574 67 543 90 q 635 34 606 44 q 710 20 665 24 q 785 18 756 17 q 867 23 815 19 q 943 28 919 26 z "},"ٰ":{"ha":0,"x_min":-25,"x_max":25,"o":"m 25 247 l -25 247 l -25 0 q 25 46 25 0 l 25 247 z "},"ٱ":{"ha":285,"x_min":-67,"x_max":350,"o":"m 69 867 l 69 0 q 176 43 136 0 q 215 153 215 86 l 215 867 l 69 867 m 1 988 l 68 953 q 243 1110 186 1129 q 274 1040 274 1094 l 274 981 l 290 994 l -4 994 l -4 922 l 275 922 q 328 944 306 922 q 349 996 350 965 l 347 1042 q 271 1178 344 1147 q 227 1185 249 1186 q 188 1180 206 1185 q 149 1160 171 1175 q 115 1133 128 1144 q 83 1097 103 1122 q 54 1062 63 1072 q 26 1023 46 1051 q 1 988 6 994 m 28 922 l 28 994 l -67 994 l -67 922 l 28 922 z "},"ٹ":{"ha":1065,"x_min":69,"x_max":996,"o":"m 850 417 l 850 119 l 878 146 l 307 146 q 242 169 268 146 q 215 222 215 193 l 215 417 l 69 417 l 69 222 q 141 64 69 128 q 307 0 213 0 l 851 0 q 953 43 911 0 q 996 146 996 86 l 996 417 l 850 417 m 333 547 l 381 547 l 381 619 l 333 619 l 333 547 m 388 981 l 388 608 l 461 608 l 461 981 l 388 981 m 382 613 l 449 578 q 624 735 567 754 q 654 665 654 719 l 654 606 l 669 619 l 375 619 l 375 547 l 656 547 q 708 569 686 547 q 728 621 729 590 l 728 667 q 650 803 725 771 q 606 810 628 811 q 567 805 585 810 q 529 785 550 800 q 495 758 508 769 q 463 723 482 747 q 434 687 443 699 q 406 648 425 675 q 382 613 388 621 z "},"پ":{"ha":1065,"x_min":69,"x_max":996,"o":"m 850 417 l 850 119 l 878 146 l 307 146 q 242 169 268 146 q 215 222 215 193 l 215 417 l 69 417 l 69 222 q 141 64 69 128 q 307 0 213 0 l 851 0 q 953 43 911 0 q 996 146 996 86 l 996 417 l 850 417 m 629 -100 q 619 -110 629 -100 q 608 -151 608 -121 q 629 -203 608 -182 q 681 -224 650 -224 q 732 -203 711 -224 q 753 -151 753 -182 q 732 -100 753 -121 q 681 -79 711 -79 q 629 -100 650 -79 m 385 -100 q 374 -110 385 -100 q 364 -151 364 -121 q 385 -203 364 -182 q 436 -224 406 -224 q 488 -203 467 -224 q 508 -151 508 -182 q 488 -100 508 -121 q 436 -79 467 -79 q 385 -100 406 -79 m 507 -260 q 497 -270 507 -260 q 486 -311 486 -281 q 507 -362 486 -342 q 558 -383 528 -383 q 610 -362 589 -383 q 631 -311 631 -342 q 610 -260 631 -281 q 558 -239 589 -239 q 507 -260 528 -239 z "},"چ":{"ha":789,"x_min":69,"x_max":719,"o":"m 69 -219 q 109 -328 69 -286 q 217 -371 149 -371 l 217 -46 q 231 -13 217 -26 q 265 0 246 0 l 610 0 q 693 40 667 0 q 719 115 719 79 l 719 189 q 691 189 710 189 q 667 189 672 189 q 649 190 663 189 q 633 192 636 190 q 619 197 629 193 q 604 204 608 200 q 590 216 600 208 q 572 233 581 224 q 553 254 564 242 q 514 301 549 258 q 453 372 479 344 q 372 437 426 399 q 256 499 317 475 l 203 363 q 288 317 249 344 q 347 269 328 289 q 400 210 367 250 q 444 157 433 169 q 454 146 447 153 l 264 146 q 124 89 178 146 q 69 -46 69 32 l 69 -219 m 533 -79 q 523 -90 533 -79 q 513 -131 513 -100 q 533 -182 513 -161 q 585 -203 554 -203 q 636 -182 615 -203 q 657 -131 657 -161 q 636 -79 657 -100 q 585 -58 615 -58 q 533 -79 554 -58 m 289 -79 q 278 -90 289 -79 q 268 -131 268 -100 q 289 -182 268 -161 q 340 -203 310 -203 q 392 -182 371 -203 q 413 -131 413 -161 q 392 -79 413 -100 q 340 -58 371 -58 q 289 -79 310 -58 m 411 -239 q 401 -249 411 -239 q 390 -290 390 -260 q 411 -342 390 -321 q 463 -362 432 -362 q 514 -342 493 -362 q 535 -290 535 -321 q 514 -239 535 -260 q 463 -218 493 -218 q 411 -239 432 -218 z "},"ڈ":{"ha":693,"x_min":69,"x_max":582,"o":"m 218 393 q 296 349 264 369 q 365 295 328 329 q 419 216 401 261 q 435 117 436 171 l 463 146 l 69 146 l 69 0 l 436 0 q 540 42 497 0 q 582 144 582 83 q 558 266 582 208 q 505 361 535 324 q 427 435 475 399 q 351 488 379 471 q 282 524 322 504 l 218 393 m 71 667 l 118 667 l 118 739 l 71 739 l 71 667 m 125 1100 l 125 728 l 199 728 l 199 1100 l 125 1100 m 119 732 l 186 697 q 361 854 304 874 q 392 785 392 839 l 392 725 l 407 739 l 113 739 l 113 667 l 393 667 q 445 688 424 667 q 465 740 467 710 l 465 786 q 388 922 463 890 q 344 930 365 931 q 305 924 322 929 q 267 904 288 919 q 233 878 246 889 q 200 842 219 867 q 172 806 181 818 q 144 767 163 794 q 119 732 125 740 z "},"ڎ":{"ha":693,"x_min":69,"x_max":582,"o":"m 218 393 q 296 349 264 369 q 365 295 328 329 q 419 216 401 261 q 435 117 436 171 l 463 146 l 69 146 l 69 0 l 436 0 q 540 42 497 0 q 582 144 582 83 q 558 266 582 208 q 505 361 535 324 q 427 435 475 399 q 351 488 379 471 q 282 524 322 504 l 218 393 m 217 892 q 206 881 217 892 q 196 840 196 871 q 217 789 196 810 q 268 768 238 768 q 319 789 299 768 q 340 840 340 810 q 319 892 340 871 q 268 913 299 913 q 217 892 238 913 m 339 718 q 328 708 339 718 q 318 667 318 697 q 339 615 318 636 q 390 594 360 594 q 442 615 421 594 q 463 667 463 636 q 442 718 463 697 q 390 739 421 739 q 339 718 360 739 m 94 718 q 84 708 94 718 q 74 667 74 697 q 94 615 74 636 q 146 594 115 594 q 197 615 176 594 q 218 667 218 636 q 197 718 218 697 q 146 739 176 739 q 94 718 115 739 z "},"ڑ":{"ha":478,"x_min":0,"x_max":526,"o":"m 261 260 l 261 -1 q 228 -97 261 -60 q 142 -133 194 -133 l 0 -133 l 0 -278 l 142 -278 q 333 -197 257 -278 q 408 -1 408 -115 l 408 260 l 261 260 m 131 488 l 178 488 l 178 560 l 131 560 l 131 488 m 185 921 l 185 549 l 258 549 l 258 921 l 185 921 m 179 553 l 246 518 q 421 675 364 694 q 451 606 451 660 l 451 546 l 467 560 l 172 560 l 172 488 l 453 488 q 505 509 483 488 q 525 561 526 531 l 525 607 q 447 743 522 711 q 403 751 425 751 q 365 745 382 750 q 326 725 347 740 q 292 699 306 710 q 260 663 279 688 q 231 627 240 639 q 203 588 222 615 q 179 553 185 561 z "},"ژ":{"ha":478,"x_min":0,"x_max":522,"o":"m 261 260 l 261 -1 q 228 -97 261 -60 q 142 -133 194 -133 l 0 -133 l 0 -278 l 142 -278 q 333 -197 257 -278 q 408 -1 408 -115 l 408 260 l 261 260 m 276 713 q 266 702 276 713 q 256 661 256 692 q 276 610 256 631 q 328 589 297 589 q 379 610 358 589 q 400 661 400 631 q 379 713 400 692 q 328 733 358 733 q 276 713 297 733 m 399 539 q 388 528 399 539 q 378 488 378 518 q 399 436 378 457 q 450 415 419 415 q 501 436 481 415 q 522 488 522 457 q 501 539 522 518 q 450 560 481 560 q 399 539 419 560 m 154 539 q 144 528 154 539 q 133 488 133 518 q 154 436 133 457 q 206 415 175 415 q 257 436 236 415 q 278 488 278 457 q 257 539 278 518 q 206 560 236 560 q 154 539 175 560 z "},"ڡ":{"ha":1182,"x_min":69,"x_max":1113,"o":"m 1040 26 l 1040 132 q 870 131 932 124 q 786 151 808 138 q 743 199 764 164 q 736 284 722 238 q 782 351 750 331 q 885 367 829 381 q 944 329 921 357 q 967 264 967 301 l 967 -158 l 993 -131 l 279 -131 q 215 -74 215 -131 l 215 138 l 69 138 l 69 -74 q 131 -221 69 -164 q 279 -278 192 -278 l 963 -278 q 1069 -233 1026 -278 q 1113 -129 1113 -189 l 1113 264 q 1075 401 1113 340 q 966 494 1035 465 q 827 515 897 522 q 703 474 757 508 q 594 325 624 422 q 619 124 565 228 q 672 66 640 89 q 733 33 703 43 q 808 19 763 22 q 883 17 853 15 q 965 22 913 18 q 1040 26 1017 25 z "},"ڤ":{"ha":1182,"x_min":69,"x_max":1113,"o":"m 1040 26 l 1040 132 q 870 131 932 124 q 786 151 808 138 q 743 199 764 164 q 736 284 722 238 q 782 351 750 331 q 885 367 829 381 q 944 329 921 357 q 967 264 967 301 l 967 -158 l 993 -131 l 279 -131 q 215 -74 215 -131 l 215 138 l 69 138 l 69 -74 q 131 -221 69 -164 q 279 -278 192 -278 l 963 -278 q 1069 -233 1026 -278 q 1113 -129 1113 -189 l 1113 264 q 1075 401 1113 340 q 966 494 1035 465 q 827 515 897 522 q 703 474 757 508 q 594 325 624 422 q 619 124 565 228 q 672 66 640 89 q 733 33 703 43 q 808 19 763 22 q 883 17 853 15 q 965 22 913 18 q 1040 26 1017 25 m 788 890 q 777 880 788 890 q 767 839 767 869 q 788 788 767 808 q 839 767 808 767 q 890 788 869 767 q 911 839 911 808 q 890 890 911 869 q 839 911 869 911 q 788 890 808 911 m 910 717 q 899 706 910 717 q 889 665 889 696 q 910 614 889 635 q 961 593 931 593 q 1013 614 992 593 q 1033 665 1033 635 q 1013 717 1033 696 q 961 738 992 738 q 910 717 931 738 m 665 717 q 655 706 665 717 q 644 665 644 696 q 665 614 644 635 q 717 593 686 593 q 768 614 747 593 q 789 665 789 635 q 768 717 789 696 q 717 738 747 738 q 665 717 686 738 z "},"ک":{"ha":1042,"x_min":69,"x_max":974,"o":"m 211 146 l 69 146 l 190 0 l 332 0 l 211 146 m 190 0 l 832 0 q 933 42 892 0 q 974 138 974 85 q 933 239 974 190 l 510 671 l 508 639 q 756 740 589 692 q 967 789 924 788 l 964 933 q 724 885 893 932 q 450 772 556 838 q 389 658 389 735 q 439 533 389 581 l 836 128 l 847 146 l 190 146 l 190 0 z "},"گ":{"ha":1042,"x_min":69,"x_max":974,"o":"m 211 146 l 69 146 l 190 0 l 332 0 l 211 146 m 190 0 l 832 0 q 933 42 892 0 q 974 138 974 85 q 933 239 974 190 l 510 671 l 508 639 q 756 740 589 692 q 967 789 924 788 l 964 933 q 724 885 893 932 q 450 772 556 838 q 389 658 389 735 q 439 533 389 581 l 836 128 l 847 146 l 190 146 l 190 0 m 504 860 q 749 956 585 910 q 958 1004 914 1003 l 956 1100 q 722 1051 890 1099 q 453 942 554 1004 l 504 860 z "},"ں":{"ha":790,"x_min":69,"x_max":721,"o":"m 575 261 l 575 -142 l 603 -114 l 385 -114 q 256 -77 297 -114 q 215 -4 215 -40 l 215 260 l 69 260 l 69 -4 q 159 -191 69 -121 q 385 -261 249 -261 l 576 -261 q 679 -218 638 -261 q 721 -115 721 -175 l 721 261 l 575 261 z "},"ڻ":{"ha":790,"x_min":69,"x_max":721,"o":"m 575 261 l 575 -142 l 603 -114 l 385 -114 q 256 -77 297 -114 q 215 -4 215 -40 l 215 260 l 69 260 l 69 -4 q 159 -191 69 -121 q 385 -261 249 -261 l 576 -261 q 679 -218 638 -261 q 721 -115 721 -175 l 721 261 l 575 261 m 210 419 l 257 419 l 257 492 l 210 492 l 210 419 m 264 853 l 264 481 l 338 481 l 338 853 l 264 853 m 258 485 l 325 450 q 500 607 443 626 q 531 538 531 592 l 531 478 l 546 492 l 251 492 l 251 419 l 532 419 q 584 441 563 419 q 604 493 606 463 l 604 539 q 526 675 601 643 q 483 683 504 683 q 444 677 461 682 q 406 657 426 672 q 372 631 385 642 q 339 595 358 619 q 310 559 319 571 q 283 520 301 547 q 258 485 264 493 z "},"ھ":{"ha":999,"x_min":0,"x_max":932,"o":"m 344 550 q 548 510 460 549 q 687 410 636 472 q 761 275 738 349 q 782 119 785 201 l 811 146 l 0 146 l 0 0 l 783 0 q 886 42 844 0 q 929 146 928 85 q 897 334 932 240 q 792 509 861 428 q 608 642 724 590 q 347 694 492 693 l 344 550 m 449 1 q 589 54 526 3 q 650 194 651 106 q 603 332 649 261 q 435 466 538 433 q 250 444 332 499 q 167 278 167 390 l 167 143 l 311 143 l 311 278 q 331 322 311 308 q 355 329 339 328 q 391 326 371 331 q 435 301 411 321 q 481 251 460 282 q 504 192 504 215 q 489 160 504 174 q 446 146 474 146 l 449 1 z "},"ۀ":{"ha":669,"x_min":65,"x_max":600,"o":"m 482 519 q 410 401 450 456 q 354 326 371 346 q 283 258 338 307 q 226 207 228 208 q 226 158 204 179 q 261 146 239 146 l 483 146 l 454 119 l 454 506 l 600 506 l 600 146 q 558 42 600 83 q 456 0 517 0 l 261 0 q 128 51 183 0 q 69 176 74 100 q 124 311 65 251 q 179 362 143 331 q 231 409 215 393 q 270 452 247 425 q 310 508 293 479 q 343 576 326 538 l 482 519 m 529 876 l 390 876 q 328 847 346 876 q 321 818 319 832 q 328 794 322 804 l 332 783 l 361 722 l 263 722 l 263 625 l 415 625 q 474 650 456 625 q 471 717 490 671 l 442 779 l 529 779 l 529 876 z "},"ہ":{"ha":669,"x_min":65,"x_max":600,"o":"m 482 519 q 410 401 450 456 q 354 326 371 346 q 283 258 338 307 q 226 207 228 208 q 226 158 204 179 q 261 146 239 146 l 483 146 l 454 119 l 454 506 l 600 506 l 600 146 q 558 42 600 83 q 456 0 517 0 l 261 0 q 128 51 183 0 q 69 176 74 100 q 124 311 65 251 q 179 362 143 331 q 231 409 215 393 q 270 452 247 425 q 310 508 293 479 q 343 576 326 538 l 482 519 z "},"ی":{"ha":876,"x_min":69,"x_max":828,"o":"m 807 200 l 615 200 q 483 124 519 200 q 507 -26 446 47 l 650 -199 l 663 -181 l 351 -181 q 252 -156 289 -181 q 215 -79 215 -131 l 215 193 l 69 193 l 69 -79 q 96 -194 69 -144 q 164 -271 122 -243 q 250 -312 206 -299 q 338 -325 294 -325 l 657 -325 q 783 -258 739 -325 q 774 -121 828 -190 l 614 72 l 600 56 l 807 56 l 807 200 z "},"ے":{"ha":1314,"x_min":53,"x_max":1244,"o":"m 807 367 q 724 406 769 390 q 616 430 678 422 q 491 408 554 438 q 379 310 428 378 q 356 268 364 288 q 345 240 347 249 q 335 221 343 231 q 308 203 326 211 q 250 186 289 196 q 103 79 154 161 q 76 -93 53 -3 q 178 -226 99 -176 q 375 -275 257 -275 l 1244 -275 l 1244 -128 l 375 -128 q 218 -57 236 -128 q 228 3 210 -28 q 288 44 247 33 q 376 79 338 57 q 436 126 414 101 q 471 171 458 150 q 490 208 483 192 l 497 226 q 729 244 578 342 l 807 367 z "},"ۓ":{"ha":1314,"x_min":53,"x_max":1244,"o":"m 807 367 q 724 406 769 390 q 616 430 678 422 q 491 408 554 438 q 379 310 428 378 q 356 268 364 288 q 345 240 347 249 q 335 221 343 231 q 308 203 326 211 q 250 186 289 196 q 103 79 154 161 q 76 -93 53 -3 q 178 -226 99 -176 q 375 -275 257 -275 l 1244 -275 l 1244 -128 l 375 -128 q 218 -57 236 -128 q 228 3 210 -28 q 288 44 247 33 q 376 79 338 57 q 436 126 414 101 q 471 171 458 150 q 490 208 483 192 l 497 226 q 729 244 578 342 l 807 367 m 729 818 l 590 818 q 528 789 546 818 q 521 760 519 774 q 528 736 522 746 l 532 725 l 561 664 l 463 664 l 463 567 l 615 567 q 674 592 656 567 q 671 658 690 613 l 642 721 l 729 721 l 729 818 z "},"۔":{"ha":538,"x_min":89,"x_max":449,"o":"m 210 146 l 89 0 l 328 0 l 449 146 l 210 146 z "},"–":{"ha":667,"x_min":58,"x_max":608,"o":"m 58 301 l 58 399 l 608 399 l 608 301 l 58 301 z "},"—":{"ha":1111,"x_min":58,"x_max":1053,"o":"m 58 301 l 58 399 l 1053 399 l 1053 301 l 58 301 z "},"‘":{"ha":369,"x_min":78,"x_max":279,"o":"m 179 553 q 104 590 131 553 q 78 697 78 628 q 242 960 78 871 l 279 894 q 167 719 167 828 l 179 618 l 119 697 q 179 722 146 722 q 240 701 215 722 q 264 642 264 679 q 240 577 264 601 q 179 553 217 553 z "},"’":{"ha":369,"x_min":90,"x_max":292,"o":"m 128 563 l 90 628 q 203 803 203 694 l 190 904 l 251 825 q 190 800 225 800 q 130 822 154 800 q 106 881 106 843 q 129 945 106 921 q 190 969 153 969 q 265 932 239 969 q 292 825 292 894 q 128 563 292 651 z "},"‚":{"ha":369,"x_min":90,"x_max":292,"o":"m 128 -212 l 90 -147 q 203 28 203 -81 l 190 129 l 251 50 q 190 25 225 25 q 130 47 154 25 q 106 106 106 68 q 129 170 106 146 q 190 194 153 194 q 265 157 239 194 q 292 50 292 119 q 128 -212 292 -124 z "},"“":{"ha":643,"x_min":78,"x_max":553,"o":"m 179 553 q 104 590 131 553 q 78 697 78 628 q 242 960 78 871 l 279 894 q 167 719 167 828 l 179 618 l 119 697 q 179 722 146 722 q 240 701 215 722 q 264 642 264 679 q 240 577 264 601 q 179 553 217 553 m 453 553 q 378 590 404 553 q 351 697 351 628 q 515 960 351 871 l 553 894 q 440 719 440 828 l 453 618 l 393 697 q 453 722 419 722 q 513 701 489 722 q 538 642 538 679 q 514 577 538 601 q 453 553 490 553 z "},"”":{"ha":643,"x_min":90,"x_max":565,"o":"m 128 563 l 90 628 q 203 803 203 694 l 190 904 l 251 825 q 190 800 225 800 q 130 822 154 800 q 106 881 106 843 q 129 945 106 921 q 190 969 153 969 q 265 932 239 969 q 292 825 292 894 q 128 563 292 651 m 401 563 l 364 628 q 476 803 476 694 l 464 904 l 525 825 q 464 800 497 800 q 403 822 428 800 q 379 881 379 843 q 403 945 379 921 q 464 969 426 969 q 539 932 513 969 q 565 825 565 894 q 401 563 565 651 z "},"„":{"ha":643,"x_min":90,"x_max":565,"o":"m 128 -212 l 90 -147 q 203 28 203 -81 l 190 129 l 251 50 q 190 25 225 25 q 130 47 154 25 q 106 106 106 68 q 129 170 106 146 q 190 194 153 194 q 265 157 239 194 q 292 50 292 119 q 128 -212 292 -124 m 401 -212 l 364 -147 q 476 28 476 -81 l 464 129 l 525 50 q 464 25 497 25 q 403 47 428 25 q 379 106 379 68 q 403 170 379 146 q 464 194 426 194 q 539 157 513 194 q 565 50 565 119 q 401 -212 565 -124 z "},"•":{"ha":442,"x_min":56,"x_max":386,"o":"m 338 239 q 314 214 338 239 q 221 189 290 189 q 103 239 151 189 q 56 365 56 289 q 103 492 56 442 q 221 542 151 542 q 338 492 290 542 q 386 365 386 442 q 338 239 386 289 z "},"…":{"ha":1331,"x_min":122,"x_max":1242,"o":"m 286 12 q 272 -2 286 12 q 218 -17 258 -17 q 150 12 178 -17 q 122 83 122 40 q 150 157 122 128 q 218 186 178 186 q 286 157 258 186 q 314 83 314 128 q 286 12 314 40 m 750 12 q 736 -2 750 12 q 682 -17 722 -17 q 614 12 642 -17 q 586 83 586 40 q 614 157 586 128 q 682 186 642 186 q 750 157 722 186 q 778 83 778 128 q 750 12 778 40 m 1214 12 q 1200 -2 1214 12 q 1146 -17 1186 -17 q 1078 12 1106 -17 q 1050 83 1050 40 q 1078 157 1050 128 q 1146 186 1106 186 q 1214 157 1186 186 q 1242 83 1242 128 q 1214 12 1242 40 z "},"‹":{"ha":386,"x_min":64,"x_max":311,"o":"m 253 88 l 64 297 l 64 403 l 253 613 l 311 565 l 150 350 l 311 133 l 253 88 z "},"›":{"ha":386,"x_min":75,"x_max":322,"o":"m 133 88 l 75 133 l 236 350 l 75 565 l 133 613 l 322 403 l 322 297 l 133 88 z "},"⁄":{"ha":124,"x_min":-233,"x_max":356,"o":"m -233 -17 l 264 926 l 356 926 l -143 -17 l -233 -17 z "},"⁴":{"ha":514,"x_min":56,"x_max":481,"o":"m 303 539 l 303 835 l 310 989 l 304 989 l 239 879 l 163 750 l 481 750 l 481 675 l 56 675 l 56 731 l 272 1081 l 400 1081 l 400 539 l 303 539 z "},"€":{"ha":704,"x_min":31,"x_max":694,"o":"m 451 -17 q 204 105 299 -17 q 110 440 110 226 q 208 778 110 654 q 469 901 307 901 q 682 793 594 901 l 600 713 q 465 788 536 788 q 310 697 365 788 q 256 444 256 606 q 310 190 256 282 q 460 97 364 97 q 613 188 546 97 l 694 113 q 451 -17 596 -17 m 31 317 l 31 389 l 128 396 l 544 396 l 544 317 l 31 317 m 31 482 l 31 554 l 129 561 l 600 561 l 600 482 l 31 482 z "},"−":{"ha":704,"x_min":47,"x_max":657,"o":"m 47 406 l 47 511 l 657 511 l 657 406 l 47 406 z "},"∕":{"ha":124,"x_min":-233,"x_max":356,"o":"m -233 -17 l 264 926 l 356 926 l -143 -17 l -233 -17 z "}}}
